<?xml version="1.0" encoding="UTF-8" standalone="no"?>
<!-- Created with Inkscape (http://www.inkscape.org/) -->

<svg
   xmlns:dc="http://purl.org/dc/elements/1.1/"
   xmlns:cc="http://creativecommons.org/ns#"
   xmlns:rdf="http://www.w3.org/1999/02/22-rdf-syntax-ns#"
   xmlns:svg="http://www.w3.org/2000/svg"
   xmlns="http://www.w3.org/2000/svg"
   xmlns:sodipodi="http://sodipodi.sourceforge.net/DTD/sodipodi-0.dtd"
   xmlns:inkscape="http://www.inkscape.org/namespaces/inkscape"
   width="210mm"
   height="297mm"
   viewBox="0 0 210 297"
   version="1.1"
   id="svg4692"
   inkscape:version="0.92.4 (5da689c313, 2019-01-14)"
   sodipodi:docname="anwen.svg"
   inkscape:export-filename="D:\Programming\Python\SSAGO-bots\resources\anwen.png"
   inkscape:export-xdpi="51.484177"
   inkscape:export-ydpi="51.484177">
  <defs
     id="defs4686">
    <inkscape:path-effect
       effect="spiro"
       id="path-effect5369"
       is_visible="true" />
    <inkscape:path-effect
       effect="spiro"
       id="path-effect5355"
       is_visible="true" />
    <inkscape:path-effect
       effect="spiro"
       id="path-effect5351"
       is_visible="true" />
    <inkscape:path-effect
       effect="spiro"
       id="path-effect5347"
       is_visible="true" />
    <inkscape:path-effect
       effect="bspline"
       id="path-effect5343"
       is_visible="true"
       weight="33.333333"
       steps="2"
       helper_size="0"
       apply_no_weight="true"
       apply_with_weight="true"
       only_selected="false" />
    <inkscape:path-effect
       only_selected="false"
       apply_with_weight="true"
       apply_no_weight="true"
       helper_size="0"
       steps="2"
       weight="33.333333"
       is_visible="true"
       id="path-effect5339"
       effect="bspline" />
    <inkscape:path-effect
       only_selected="false"
       apply_with_weight="true"
       apply_no_weight="true"
       helper_size="0"
       steps="2"
       weight="33.333333"
       is_visible="true"
       id="path-effect5335"
       effect="bspline" />
    <inkscape:path-effect
       only_selected="false"
       apply_with_weight="true"
       apply_no_weight="true"
       helper_size="0"
       steps="2"
       weight="33.333333"
       is_visible="true"
       id="path-effect5331"
       effect="bspline" />
    <inkscape:path-effect
       only_selected="false"
       apply_with_weight="true"
       apply_no_weight="true"
       helper_size="0"
       steps="2"
       weight="33.333333"
       is_visible="true"
       id="path-effect5327"
       effect="bspline" />
    <inkscape:path-effect
       effect="bspline"
       id="path-effect5323"
       is_visible="true"
       weight="33.333333"
       steps="2"
       helper_size="0"
       apply_no_weight="true"
       apply_with_weight="true"
       only_selected="false" />
    <inkscape:path-effect
       effect="bspline"
       id="path-effect5319"
       is_visible="true"
       weight="33.333333"
       steps="2"
       helper_size="0"
       apply_no_weight="true"
       apply_with_weight="true"
       only_selected="false" />
    <inkscape:path-effect
       effect="bspline"
       id="path-effect5315"
       is_visible="true"
       weight="33.333333"
       steps="2"
       helper_size="0"
       apply_no_weight="true"
       apply_with_weight="true"
       only_selected="false" />
    <inkscape:path-effect
       effect="bspline"
       id="path-effect5311"
       is_visible="true"
       weight="33.333333"
       steps="2"
       helper_size="0"
       apply_no_weight="true"
       apply_with_weight="true"
       only_selected="false" />
    <inkscape:path-effect
       effect="bspline"
       id="path-effect4764"
       is_visible="true"
       weight="33.333333"
       steps="2"
       helper_size="0"
       apply_no_weight="true"
       apply_with_weight="true"
       only_selected="false" />
    <inkscape:path-effect
       effect="bspline"
       id="path-effect4760"
       is_visible="true"
       weight="33.333333"
       steps="2"
       helper_size="0"
       apply_no_weight="true"
       apply_with_weight="true"
       only_selected="false" />
    <inkscape:path-effect
       effect="bspline"
       id="path-effect4756"
       is_visible="true"
       weight="33.333333"
       steps="2"
       helper_size="0"
       apply_no_weight="true"
       apply_with_weight="true"
       only_selected="false" />
    <inkscape:path-effect
       effect="bspline"
       id="path-effect4752"
       is_visible="true"
       weight="33.333333"
       steps="2"
       helper_size="0"
       apply_no_weight="true"
       apply_with_weight="true"
       only_selected="false" />
    <inkscape:path-effect
       effect="bspline"
       id="path-effect4748"
       is_visible="true"
       weight="33.333333"
       steps="2"
       helper_size="0"
       apply_no_weight="true"
       apply_with_weight="true"
       only_selected="false" />
    <inkscape:path-effect
       effect="bspline"
       id="path-effect4744"
       is_visible="true"
       weight="33.333333"
       steps="2"
       helper_size="0"
       apply_no_weight="true"
       apply_with_weight="true"
       only_selected="false" />
    <inkscape:path-effect
       effect="bspline"
       id="path-effect4740"
       is_visible="true"
       weight="33.333333"
       steps="2"
       helper_size="0"
       apply_no_weight="true"
       apply_with_weight="true"
       only_selected="false" />
    <inkscape:path-effect
       effect="bspline"
       id="path-effect4736"
       is_visible="true"
       weight="33.333333"
       steps="2"
       helper_size="0"
       apply_no_weight="true"
       apply_with_weight="true"
       only_selected="false" />
    <inkscape:path-effect
       effect="bspline"
       id="path-effect4732"
       is_visible="true"
       weight="33.333333"
       steps="2"
       helper_size="0"
       apply_no_weight="true"
       apply_with_weight="true"
       only_selected="false" />
    <inkscape:path-effect
       effect="bspline"
       id="path-effect4728"
       is_visible="true"
       weight="33.333333"
       steps="2"
       helper_size="0"
       apply_no_weight="true"
       apply_with_weight="true"
       only_selected="false" />
    <inkscape:path-effect
       effect="bspline"
       id="path-effect4724"
       is_visible="true"
       weight="33.333333"
       steps="2"
       helper_size="0"
       apply_no_weight="true"
       apply_with_weight="true"
       only_selected="false" />
    <inkscape:path-effect
       effect="spiro"
       id="path-effect4720"
       is_visible="true" />
    <inkscape:path-effect
       effect="spiro"
       id="path-effect4716"
       is_visible="true" />
    <inkscape:path-effect
       effect="spiro"
       id="path-effect4712"
       is_visible="true" />
    <inkscape:path-effect
       effect="spiro"
       id="path-effect4708"
       is_visible="true" />
    <inkscape:path-effect
       effect="spiro"
       id="path-effect4704"
       is_visible="true" />
  </defs>
  <sodipodi:namedview
     id="base"
     pagecolor="#ffffff"
     bordercolor="#666666"
     borderopacity="1.0"
     inkscape:pageopacity="0.0"
     inkscape:pageshadow="2"
     inkscape:zoom="0.76435185"
     inkscape:cx="519.809"
     inkscape:cy="640.47736"
     inkscape:document-units="mm"
     inkscape:current-layer="layer1"
     showgrid="false"
     inkscape:window-width="1920"
     inkscape:window-height="1051"
     inkscape:window-x="2391"
     inkscape:window-y="-9"
     inkscape:window-maximized="1" />
  <metadata
     id="metadata4689">
    <rdf:RDF>
      <cc:Work
         rdf:about="">
        <dc:format>image/svg+xml</dc:format>
        <dc:type
           rdf:resource="http://purl.org/dc/dcmitype/StillImage" />
        <dc:title></dc:title>
      </cc:Work>
    </rdf:RDF>
  </metadata>
  <g
     inkscape:label="Layer 1"
     inkscape:groupmode="layer"
     id="layer1">
    <path
       transform="matrix(0.91814282,0,0,1.0295617,-6.2011144,-21.536045)"
       inkscape:original-d="M 48.380951,98.751487 C 42.396595,93.018582 36.411971,87.285945 30.427083,81.55357 25.261668,81.427314 20.095998,81.301322 14.930059,81.175594 c -1.13372,0.188733 -2.267592,0.377712 -3.401785,0.566965 0.504366,2.457231 1.008201,4.913424 1.511904,7.370535 -0.566746,0.881753 -1.133664,1.763625 -1.700892,2.645834 -1.008024,1.575186 -2.0156089,3.149536 -3.02381,4.724701 1.1344148,2.016003 2.268122,4.031481 3.401786,6.047621 -0.692722,2.33069 -1.385648,4.66144 -2.0788694,6.99256 -0.8187944,1.0078 -1.6376321,2.01561 -2.4568451,3.02381 1.00849,2.20523 2.0161377,4.40945 3.0238095,6.61458 1.071255,1.57472 2.14213,3.14954 3.212798,4.7247 -1.76369,1.82669 -3.5275137,3.7795 -5.2916669,5.66965 2.5834759,3.59102 5.1659389,7.18128 7.7485119,10.77232 6.36295,0.7557 12.725463,1.51164 19.087798,2.26786 5.102759,-2.83499 10.205622,-5.66991 15.308035,-8.50447 1.764046,-0.63019 3.528041,-1.26019 5.291666,-1.88988 -2.393153,-11.14855 -4.787434,-22.30086 -7.181548,-33.450893 z"
       inkscape:path-effect="#path-effect5327"
       inkscape:connector-curvature="0"
       id="path5325"
       d="M 46.585546,101.46022 C 42.396335,93.018854 36.411712,87.286215 30.836687,84.3569 25.261661,81.427584 20.095991,81.301592 16.946183,81.333067 c -3.149808,0.03148 -4.28368,0.220454 -4.598765,1.54362 -0.315084,1.323166 0.18875,3.779359 0.157349,5.448738 -0.0314,1.669379 -0.59832,2.551251 -1.385946,3.779948 -0.787627,1.228698 -1.7952113,2.803048 -1.7322278,4.598742 0.062984,1.795694 1.1966898,3.811175 1.4172328,5.984475 0.220543,2.1733 -0.472383,4.50405 -1.2283181,6.17352 -0.7559356,1.66948 -1.5747779,2.67729 -1.4802831,4.28409 0.094495,1.6068 1.1021394,3.81102 2.1416112,5.70097 1.039472,1.88996 2.110349,3.46478 1.779697,5.18026 -0.330653,1.71548 -2.1258999,3.63896 -1.716386,6.37966 0.409513,2.7407 2.991979,6.33096 7.464874,8.50436 4.472894,2.17341 10.835407,2.92935 16.567997,1.88987 5.732591,-1.03949 10.835451,-3.87441 14.268684,-5.60675 3.433232,-1.73235 5.197228,-2.36234 4.882282,-8.25151 -0.314945,-5.88916 -2.709226,-17.04147 -6.898438,-25.48284 z"
       style="opacity:1;fill:#008000;stroke:#000000;stroke-width:1.5;stroke-linecap:butt;stroke-linejoin:miter;stroke-miterlimit:4;stroke-dasharray:none;stroke-opacity:1"
       inkscape:export-xdpi="51.484177"
       inkscape:export-ydpi="51.484177" />
    <path
       transform="matrix(0.91814282,0,0,1.0295617,-7.0046307,-22.064302)"
       inkscape:original-d="m 12.095238,123.31994 c 3.370552,0.12573 6.74084,0.25172 10.110863,0.37797 2.897863,-0.66167 5.795898,-1.32318 8.693451,-1.98437 4.063077,-1.63799 8.126754,-3.27606 12.189732,-4.91369"
       inkscape:path-effect="#path-effect5339"
       inkscape:connector-curvature="0"
       id="path5337"
       d="m 12.095238,123.31994 c 3.370542,0.126 6.74083,0.25199 9.8748,-0.0158 3.13397,-0.26775 6.032006,-0.92925 9.512326,-2.07887 3.480321,-1.14962 7.543997,-2.78769 11.60692,-4.42546"
       style="fill:none;stroke:#000000;stroke-width:1.5;stroke-linecap:butt;stroke-linejoin:miter;stroke-miterlimit:4;stroke-dasharray:none;stroke-opacity:1"
       inkscape:export-xdpi="51.484177"
       inkscape:export-ydpi="51.484177" />
    <path
       transform="matrix(0.91814282,0,0,1.0295617,-5.7689845,-21.520528)"
       sodipodi:nodetypes="cccc"
       inkscape:original-d="m 10.772321,104.13765 c 3.748529,0.72419 7.496793,1.44864 11.244792,2.17336 3.968796,0.58242 7.937764,1.16516 11.90625,1.74814 3.002459,-0.14293 6.004649,-0.2856 9.006579,-0.428"
       inkscape:path-effect="#path-effect5335"
       inkscape:connector-curvature="0"
       id="path5333"
       d="m 10.772321,104.13765 c 3.74847,0.72449 7.496734,1.44895 11.355139,2.10251 3.858406,0.65356 7.827373,1.23631 11.312873,1.45631 3.485501,0.22 6.487691,0.0773 9.489609,-0.0653"
       style="fill:none;stroke:#000000;stroke-width:1.5;stroke-linecap:butt;stroke-linejoin:miter;stroke-miterlimit:4;stroke-dasharray:none;stroke-opacity:1"
       inkscape:export-xdpi="51.484177"
       inkscape:export-ydpi="51.484177" />
    <path
       transform="matrix(0.91814282,0,0,1.0295617,-5.9571113,-20.500514)"
       sodipodi:nodetypes="cccc"
       inkscape:original-d="m 12.189732,89.302081 c 3.581541,0.579091 7.162818,1.158448 10.74383,1.738068 3.18828,1.014659 6.376295,2.029582 9.564046,3.04477 3.058353,2.216716 6.116441,4.433696 9.174266,6.650941"
       inkscape:path-effect="#path-effect5331"
       inkscape:connector-curvature="0"
       id="path5329"
       d="m 12.189732,89.302081 c 3.581492,0.579391 7.16277,1.158747 10.547389,1.955895 3.38462,0.797149 6.572635,1.812072 9.695629,3.428015 3.122994,1.615943 6.181082,3.832923 9.239124,6.049869"
       style="fill:none;stroke:#000000;stroke-width:1.5;stroke-linecap:butt;stroke-linejoin:miter;stroke-miterlimit:4;stroke-dasharray:none;stroke-opacity:1"
       inkscape:export-xdpi="51.484177"
       inkscape:export-ydpi="51.484177" />
    <path
       style="fill:#d40000;stroke:#000000;stroke-width:1.5;stroke-linecap:butt;stroke-linejoin:miter;stroke-miterlimit:4;stroke-dasharray:none;stroke-opacity:1"
       d="M 91.09226,80.041664 C 81.618378,76.48218 71.462404,74.374409 61.371929,75.153303 51.281454,75.932197 41.250188,79.765848 34.017857,86.845237 28.666664,92.083268 24.971436,99.030708 23.81784,106.42945 c -1.153597,7.39875 0.277731,15.20745 4.152399,21.61519 4.325938,7.15403 11.47231,12.31915 19.263189,15.35166 7.790879,3.03252 16.22495,4.07317 24.582047,4.3031 21.938269,0.60358 43.655705,-4.18972 65.569705,-5.38489 11.81669,-0.64447 23.69043,-0.23912 35.43566,1.2097 0.85919,-0.13035 1.66519,-0.58509 2.22105,-1.25309 0.55586,-0.668 0.85656,-1.54322 0.8286,-2.41179 -0.0221,-0.68694 -0.24418,-1.3612 -0.60037,-1.949 -0.35619,-0.5878 -0.84357,-1.09087 -1.39615,-1.49957 -1.10517,-0.8174 -2.44591,-1.25079 -3.78469,-1.56255 -4.92798,-1.14757 -10.05951,-0.81134 -15.11904,-0.75595 -3.34686,0.0366 -6.70945,-0.054 -10.00744,-0.62499 -3.29799,-0.571 -6.54268,-1.63719 -9.36384,-3.43825 -1.4309,-0.9135 -2.77986,-2.05448 -3.54633,-3.56924 -0.38324,-0.75738 -0.61112,-1.60011 -0.60468,-2.4489 0.006,-0.84879 0.25403,-1.70244 0.74923,-2.39184 0.69502,-0.96758 1.82209,-1.54928 2.97655,-1.84335 1.15447,-0.29407 2.3557,-0.33321 3.54353,-0.4245 3.94524,-0.30322 7.81876,-1.19431 11.73157,-1.78318 3.30445,-0.49731 6.64655,-0.78053 9.90644,-1.51524 1.88742,-0.42538 3.74092,-1.00121 5.53712,-1.72021 1.68331,-0.75352 3.42245,-1.38228 5.19844,-1.87944 0.59275,-0.16593 1.20435,-0.324 1.7055,-0.6814 0.4527,-0.32285 0.78914,-0.79633 0.98153,-1.31802 0.19239,-0.52169 0.24467,-1.08968 0.18961,-1.64298 -0.11011,-1.10661 -0.63442,-2.12902 -1.23234,-3.06667 -2.42285,-3.79946 -6.25746,-6.675416 -10.58334,-7.937504 -11.99747,1.91643 -24.44007,0.986346 -36.0193,-2.692445 C 114.0068,91.261697 103.00232,84.516459 91.09226,80.041664 Z"
       id="path4702"
       inkscape:connector-curvature="0"
       inkscape:path-effect="#path-effect4704"
       inkscape:original-d="m 91.09226,80.041664 c -11.843518,-5.921361 -38.049337,4.535451 -57.074403,6.803573 -19.025066,2.268122 -4.031483,27.466003 -6.047618,41.199403 -2.016139,13.7334 29.230423,13.10291 43.845236,19.65476 14.614816,6.55186 44.529295,-5.38516 65.569705,-5.38489 21.04041,2.7e-4 72.16749,-25.84127 35.43566,1.2097 9.32314,1.26019 -1.10782,-0.89332 3.04965,-3.66488 4.15747,-2.77156 -4.01705,-2.23956 -5.78121,-5.01112 -1.76415,-2.77156 -10.0791,-0.50423 -15.11904,-0.75595 -5.03995,-0.25172 -11.05554,-1.79565 -19.37128,-4.06324 -8.31574,-2.26759 -3.14954,-5.63842 -3.40178,-8.40998 -0.25225,-2.77156 3.37054,-2.39411 6.52008,-2.26785 1.00659,0.0404 8.74749,-1.12898 11.73157,-1.78318 2.61689,-0.5737 8.82765,-4.53753 9.90644,-1.51524 0.23709,0.66423 6.26398,-6.04315 5.53712,-1.72021 0,0 4.11323,-1.55709 5.19844,-1.87944 0.38674,-0.11488 1.39558,-0.57519 1.7055,-0.6814 5.7403,-1.96718 -3.40803,-2.68086 -0.0612,-6.02767 3.6874,-3.76736 -6.59474,-5.982768 -10.58334,-7.937504 -3.52804,-2.645569 -24.17578,-2.69271 -36.0193,-2.692445 -11.84353,2.64e-4 -23.19671,-9.151072 -35.04023,-15.072437 z"
       sodipodi:nodetypes="ssssscscssccsssssccss"
       inkscape:export-xdpi="51.484177"
       inkscape:export-ydpi="51.484177"
       transform="matrix(0.91814282,0,0,1.0295617,-0.69670789,-1.5488469)" />
    <path
       style="fill:#2b0000;stroke:#000000;stroke-width:0.26458332px;stroke-linecap:butt;stroke-linejoin:miter;stroke-opacity:1"
       d="m 151.94643,98.562497 c -0.85781,0.175063 -1.64922,0.658853 -2.19614,1.342496 -0.54691,0.683647 -0.84518,1.561947 -0.82767,2.437267 0.0195,0.97694 0.43558,1.94023 1.13339,2.62423 0.69782,0.68399 1.66923,1.08069 2.64637,1.08069 0.97714,0 1.94855,-0.3967 2.64637,-1.08069 0.69781,-0.684 1.11385,-1.64729 1.13339,-2.62423 0.0226,-1.12896 -0.49207,-2.25698 -1.35953,-2.979869 -0.86746,-0.722887 -2.0698,-1.025685 -3.17618,-0.799894 z"
       id="path4706"
       inkscape:connector-curvature="0"
       inkscape:path-effect="#path-effect4708"
       inkscape:original-d="m 151.94643,98.562497 c -1.51217,-1.259654 -2.01561,2.519573 -3.02381,3.779763 -1.0082,1.26018 5.03994,-2.6e-4 7.55952,0 2.51958,2.7e-4 -3.02354,-2.520105 -4.53571,-3.779763 z"
       transform="matrix(0.95769513,0,0,0.50565542,3.1401737,49.43705)"
       inkscape:export-xdpi="51.484177"
       inkscape:export-ydpi="51.484177" />
    <path
       style="fill:#f9f9f9;stroke:#000000;stroke-width:1.5;stroke-linecap:butt;stroke-linejoin:miter;stroke-miterlimit:4;stroke-dasharray:none;stroke-opacity:1"
       d="m 69.169642,78.907737 c -1.092046,0.379419 -2.145813,0.935447 -2.941447,1.77419 -0.397816,0.419372 -0.726981,0.906879 -0.943725,1.442745 -0.216744,0.535866 -0.319315,1.120609 -0.272565,1.696756 0.05596,0.689597 0.325003,1.353639 0.723278,1.919371 0.398275,0.565732 0.922439,1.036115 1.500217,1.416705 1.155555,0.76118 2.504351,1.161797 3.824123,1.577614 1.461084,0.46034 2.934202,0.955427 4.464094,1.033587 0.764945,0.03908 1.539866,-0.02865 2.272038,-0.253579 0.732171,-0.224932 1.421037,-0.61111 1.95732,-1.157983 0.922988,-0.941214 1.334911,-2.320917 1.217815,-3.633958 -0.117096,-1.313042 -0.729782,-2.553701 -1.595791,-3.547591 -1.215069,-1.394495 -2.925874,-2.325761 -4.738764,-2.692419 -1.81289,-0.366658 -3.719445,-0.182465 -5.466593,0.424562 z"
       id="path4710"
       inkscape:connector-curvature="0"
       inkscape:path-effect="#path-effect4712"
       inkscape:original-d="m 69.169642,78.907737 c -3.40205,-0.755687 -2.771561,3.275528 -4.157737,4.913691 -1.386178,1.638162 4.032009,3.275528 6.047618,4.91369 2.015609,1.63816 5.795899,-0.252248 8.693452,-0.377975 2.897552,-0.125728 -0.251719,-4.787964 -0.377976,-7.181549 -0.126257,-2.393584 -6.803308,-1.51217 -10.205357,-2.267857 z"
       inkscape:export-xdpi="51.484177"
       inkscape:export-ydpi="51.484177"
       transform="matrix(0.91814282,0,0,1.0295617,-0.69670789,-1.5488469)" />
    <path
       style="fill:#000000;stroke:#000000;stroke-width:0.26458332px;stroke-linecap:butt;stroke-linejoin:miter;stroke-opacity:1"
       d="m 75.637275,83.585282 c -0.518483,0.19811 -1.026236,0.461196 -1.403164,0.868624 -0.461417,0.498753 -0.692335,1.195211 -0.651749,1.873453 0.04059,0.678242 0.344894,1.331983 0.814998,1.822556 0.470104,0.490573 1.099486,0.819316 1.764804,0.957199 0.665318,0.137882 1.364271,0.08859 2.014172,-0.109624 0.569564,-0.173711 1.108157,-0.46383 1.538853,-0.875023 0.430697,-0.411193 0.749665,-0.946529 0.866572,-1.530405 0.133865,-0.668569 -0.0055,-1.384266 -0.36381,-1.964392 -0.35827,-0.580126 -0.928815,-1.021984 -1.573893,-1.242842 -0.969947,-0.332084 -2.049092,-0.165476 -3.006783,0.200454 z"
       id="path4714"
       inkscape:connector-curvature="0"
       inkscape:path-effect="#path-effect4716"
       inkscape:original-d="m 75.637275,83.585282 c -1.002524,0.06708 -0.935177,0.578818 -1.403164,0.868624 -0.467988,0.289806 2.628415,3.028791 3.942225,4.543584 1.31381,1.51479 1.603883,-1.603883 2.405425,-2.405428 0.801545,-0.801542 -1.291537,-2.13842 -1.937703,-3.207234 -0.646168,-1.068813 -2.004258,0.133371 -3.006783,0.200454 z"
       inkscape:export-xdpi="51.484177"
       inkscape:export-ydpi="51.484177"
       transform="matrix(0.91814282,0,0,1.0295617,-0.69670789,-1.5488469)" />
    <path
       style="fill:#ffffff;stroke:#000000;stroke-width:0.26458332px;stroke-linecap:butt;stroke-linejoin:miter;stroke-opacity:1"
       d="m 75.645628,84.846458 c -0.06313,0.04149 -0.119734,0.09441 -0.158717,0.159115 -0.03898,0.06471 -0.0595,0.141778 -0.05009,0.216733 0.0063,0.05044 0.02602,0.09892 0.05519,0.140552 0.02917,0.04163 0.06766,0.07646 0.111074,0.102906 0.08683,0.05289 0.191611,0.07142 0.293107,0.06557 0.124469,-0.0072 0.249187,-0.05172 0.339492,-0.137682 0.04515,-0.04298 0.08118,-0.09584 0.102663,-0.154358 0.02149,-0.05852 0.02821,-0.122674 0.01721,-0.184035 -0.01288,-0.0719 -0.05003,-0.138789 -0.102269,-0.189837 -0.05224,-0.05105 -0.119132,-0.08638 -0.190112,-0.103604 -0.141959,-0.03446 -0.295484,0.0044 -0.417554,0.08464 z"
       id="path4718"
       inkscape:connector-curvature="0"
       inkscape:path-effect="#path-effect4720"
       inkscape:original-d="m 75.645628,84.846458 c -0.23691,-0.06934 -0.138938,0.250301 -0.208804,0.375848 -0.06987,0.125548 0.30651,0.205756 0.45937,0.309031 0.152858,0.103275 0.306509,-0.317648 0.459369,-0.476075 0.152858,-0.158425 -0.473027,-0.139467 -0.709935,-0.208804 z"
       transform="matrix(1.8351382,0,0,2.1360141,-70.66917,-96.113966)"
       inkscape:export-xdpi="51.484177"
       inkscape:export-ydpi="51.484177" />
    <path
       style="fill:#008000;stroke:#000000;stroke-width:1.5;stroke-linecap:butt;stroke-linejoin:miter;stroke-miterlimit:4;stroke-dasharray:none;stroke-opacity:1"
       d="M 46.585546,101.46022 C 42.396335,93.018854 36.411712,87.286215 30.836687,84.3569 25.261661,81.427584 20.095991,81.301592 16.946183,81.333067 c -3.149808,0.03148 -4.28368,0.220454 -4.598765,1.54362 -0.315084,1.323166 0.18875,3.779359 0.157349,5.448738 -0.0314,1.669379 -0.59832,2.551251 -1.385946,3.779948 -0.787627,1.228698 -1.7952113,2.803048 -1.7322278,4.598742 0.062984,1.795694 1.1966898,3.811175 1.4172328,5.984475 0.220543,2.1733 -0.472383,4.50405 -1.2283181,6.17352 -0.7559356,1.66948 -1.5747779,2.67729 -1.4802831,4.28409 0.094495,1.6068 1.1021394,3.81102 2.1416112,5.70097 1.039472,1.88996 2.110349,3.46478 1.779697,5.18026 -0.330653,1.71548 -2.1258999,3.63896 -1.716386,6.37966 0.409513,2.7407 2.991979,6.33096 7.464874,8.50436 4.472894,2.17341 10.835407,2.92935 16.567997,1.88987 5.732591,-1.03949 10.835451,-3.87441 14.268684,-5.60675 3.433232,-1.73235 5.197228,-2.36234 4.882282,-8.25151 -0.314945,-5.88916 -2.709226,-17.04147 -6.898438,-25.48284 z"
       id="path4734"
       inkscape:connector-curvature="0"
       inkscape:path-effect="#path-effect4736"
       inkscape:original-d="M 48.380951,98.751487 C 42.396595,93.018582 36.411971,87.285945 30.427083,81.55357 25.261668,81.427314 20.095998,81.301322 14.930059,81.175594 c -1.13372,0.188733 -2.267592,0.377712 -3.401785,0.566965 0.504366,2.457231 1.008201,4.913424 1.511904,7.370535 -0.566746,0.881753 -1.133664,1.763625 -1.700892,2.645834 -1.008024,1.575186 -2.0156089,3.149536 -3.02381,4.724701 1.1344148,2.016003 2.268122,4.031481 3.401786,6.047621 -0.692722,2.33069 -1.385648,4.66144 -2.0788694,6.99256 -0.8187944,1.0078 -1.6376321,2.01561 -2.4568451,3.02381 1.00849,2.20523 2.0161377,4.40945 3.0238095,6.61458 1.071255,1.57472 2.14213,3.14954 3.212798,4.7247 -1.76369,1.82669 -3.5275137,3.7795 -5.2916669,5.66965 2.5834759,3.59102 5.1659389,7.18128 7.7485119,10.77232 6.36295,0.7557 12.725463,1.51164 19.087798,2.26786 5.102759,-2.83499 10.205622,-5.66991 15.308035,-8.50447 1.764046,-0.63019 3.528041,-1.26019 5.291666,-1.88988 -2.393153,-11.14855 -4.787434,-22.30086 -7.181548,-33.450893 z"
       transform="matrix(0.91814282,0,0,1.0295617,-2.6054066,-17.503989)"
       inkscape:export-xdpi="51.484177"
       inkscape:export-ydpi="51.484177" />
    <path
       style="fill:#008000;stroke:#000000;stroke-width:1.5;stroke-linecap:butt;stroke-linejoin:miter;stroke-miterlimit:4;stroke-dasharray:none;stroke-opacity:1"
       d="m 131.63808,123.47729 c 0.008,-0.22062 0.0236,-0.66159 0.22833,-1.12604 0.20472,-0.46446 0.59869,-0.95298 1.09465,-1.34655 0.49595,-0.39357 1.09478,-0.69298 1.91344,-0.95273 0.81866,-0.25975 1.85865,-0.48036 2.7011,-0.5827 0.84245,-0.10235 1.48835,-0.0866 2.43574,-0.0396 0.94739,0.047 2.19746,0.12531 3.89391,0.73569 1.69644,0.61038 3.83587,1.75067 6.99683,2.27946 3.16096,0.52879 7.31967,0.44218 13.95439,-0.0107 6.63473,-0.45287 15.73765,-1.27182 20.89534,-1.27966 5.15768,-0.008 6.3703,0.79532 7.58297,1.59852 0,0 0,0 0,0 -6.58309,1.98437 -13.16548,3.96854 -13.00806,6.22085 0.15741,2.25231 7.05508,4.77201 10.50404,6.0319 3.44896,1.25989 3.44896,1.25989 0.89776,1.30714 -2.5512,0.0472 -7.65371,0.14174 -13.18183,-0.33073 -5.52813,-0.47246 -11.48105,-1.51186 -15.8436,-1.88986 -4.36255,-0.37799 -7.13415,-0.0945 -9.79588,-0.0473 -2.66174,0.0473 -5.21281,-0.14171 -7.22878,-0.40945 -2.01597,-0.26774 -3.49623,-0.61418 -4.85078,-1.11819 -1.35454,-0.504 -2.58281,-1.16538 -3.54352,-1.68511 -0.96072,-0.51973 -1.65357,-0.89765 -2.47262,-1.48042 -0.81905,-0.58278 -1.76391,-1.37016 -2.34666,-2.18921 -0.58275,-0.81906 -0.80324,-1.66951 -0.88193,-2.25225 -0.0787,-0.58275 -0.0157,-0.89778 0.0158,-1.05512 0.0315,-0.15734 0.0315,-0.15736 0.0394,-0.37798 z"
       id="path4738"
       inkscape:connector-curvature="0"
       inkscape:path-effect="#path-effect4740"
       inkscape:original-d="m 131.63021,123.69791 c 0.016,-0.44123 0.0318,-0.8822 0.0472,-1.32291 0.39375,-0.48818 0.78772,-0.9767 1.18118,-1.46466 0.59837,-0.29932 1.19719,-0.59873 1.79539,-0.89769 1.03914,-0.22064 2.07913,-0.44124 3.1183,-0.66146 0.64578,0.0155 1.29168,0.0312 1.93713,0.0472 1.24934,0.078 2.49941,0.1563 3.74873,0.23485 2.14372,1.14217 4.28315,2.28247 6.43034,3.4273 4.17455,-0.0872 8.33326,-0.1738 12.4995,-0.26031 9.1032,-0.81921 18.20612,-1.63816 27.30878,-2.45684 1.21294,0.80293 3.63802,2.4096 3.63802,2.4096 v 0 c 0,0 -13.16553,3.96837 -19.74926,5.95312 6.89873,2.51972 13.7964,5.03942 20.6942,7.55952 2.6e-4,-2.6e-4 2.6e-4,-2.6e-4 0,0 -5.10241,0.0942 -10.20491,0.18873 -15.30803,0.28349 -5.95308,-1.03974 -11.906,-2.07913 -17.85938,-3.1183 -2.77179,0.28324 -5.54339,0.5667 -8.31548,0.85045 -2.55134,-0.18928 -5.10241,-0.37824 -7.65401,-0.56697 -1.48029,-0.34677 -2.96055,-0.69322 -4.44122,-1.03943 -1.22832,-0.66181 -2.45659,-1.32318 -3.68527,-1.98437 -0.69275,-0.37827 -1.3856,-0.75619 -2.07887,-1.13393 -0.94476,-0.78778 -1.88962,-1.57517 -2.83483,-2.36235 -0.22022,-0.85072 -0.4407,-1.70117 -0.66145,-2.55135 0.0633,-0.31518 0.12626,-0.63022 0.18899,-0.94494 z"
       sodipodi:nodetypes="cccccccccccccccccccccccccc"
       inkscape:export-xdpi="51.484177"
       inkscape:export-ydpi="51.484177"
       transform="matrix(0.91814282,0,0,1.0295617,-0.69670789,-1.5488469)" />
    <path
       style="fill:none;stroke:#000000;stroke-width:1.5;stroke-linecap:butt;stroke-linejoin:miter;stroke-miterlimit:4;stroke-dasharray:none;stroke-opacity:1"
       d="m 180.48363,128.98958 c -2.89755,0 -5.79537,0 -8.56733,-0.15749 -2.77196,-0.15749 -5.41756,-0.47244 -8.032,-0.66144 -2.61443,-0.18901 -5.19704,-0.252 -7.78014,-0.315"
       id="path4742"
       inkscape:connector-curvature="0"
       inkscape:path-effect="#path-effect4744"
       inkscape:original-d="m 180.48363,128.98958 c -2.89755,-2.6e-4 -5.79537,-2.6e-4 -8.69345,0 -2.64581,-0.31527 -5.29141,-0.63022 -7.9375,-0.94494 -2.5828,-0.0633 -5.16541,-0.12625 -7.74852,-0.18899"
       inkscape:export-xdpi="51.484177"
       inkscape:export-ydpi="51.484177"
       transform="matrix(0.91814282,0,0,1.0295617,-0.69670789,-1.5488469)" />
    <path
       style="fill:none;stroke:#000000;stroke-width:1.5;stroke-linecap:butt;stroke-linejoin:miter;stroke-miterlimit:4;stroke-dasharray:none;stroke-opacity:1"
       d="m 12.189732,89.302081 c 3.581492,0.579391 7.16277,1.158747 10.547389,1.955895 3.38462,0.797149 6.572635,1.812072 9.695629,3.428015 3.122994,1.615943 6.181082,3.832923 9.239124,6.049869"
       id="path4746"
       inkscape:connector-curvature="0"
       inkscape:path-effect="#path-effect4748"
       inkscape:original-d="m 12.189732,89.302081 c 3.581541,0.579091 7.162818,1.158448 10.74383,1.738068 3.18828,1.014659 6.376295,2.029582 9.564046,3.04477 3.058353,2.216716 6.116441,4.433696 9.174266,6.650941"
       sodipodi:nodetypes="cccc"
       transform="matrix(0.91814282,0,0,1.0295617,-2.7789246,-17.114839)"
       inkscape:export-xdpi="51.484177"
       inkscape:export-ydpi="51.484177" />
    <path
       style="fill:none;stroke:#000000;stroke-width:1.5;stroke-linecap:butt;stroke-linejoin:miter;stroke-miterlimit:4;stroke-dasharray:none;stroke-opacity:1"
       d="m 10.772321,104.13765 c 3.74847,0.72449 7.496734,1.44895 11.355139,2.10251 3.858406,0.65356 7.827373,1.23631 11.312873,1.45631 3.485501,0.22 6.487691,0.0773 9.489609,-0.0653"
       id="path4750"
       inkscape:connector-curvature="0"
       inkscape:path-effect="#path-effect4752"
       inkscape:original-d="m 10.772321,104.13765 c 3.748529,0.72419 7.496793,1.44864 11.244792,2.17336 3.968796,0.58242 7.937764,1.16516 11.90625,1.74814 3.002459,-0.14293 6.004649,-0.2856 9.006579,-0.428"
       sodipodi:nodetypes="cccc"
       transform="matrix(0.91814282,0,0,1.0295617,-2.4318885,-16.531114)"
       inkscape:export-xdpi="51.484177"
       inkscape:export-ydpi="51.484177" />
    <path
       style="fill:none;stroke:#000000;stroke-width:1.5;stroke-linecap:butt;stroke-linejoin:miter;stroke-miterlimit:4;stroke-dasharray:none;stroke-opacity:1"
       d="m 12.095238,123.31994 c 3.370542,0.126 6.74083,0.25199 9.8748,-0.0158 3.13397,-0.26775 6.032006,-0.92925 9.512326,-2.07887 3.480321,-1.14962 7.543997,-2.78769 11.60692,-4.42546"
       id="path4754"
       inkscape:connector-curvature="0"
       inkscape:path-effect="#path-effect4756"
       inkscape:original-d="m 12.095238,123.31994 c 3.370552,0.12573 6.74084,0.25172 10.110863,0.37797 2.897863,-0.66167 5.795898,-1.32318 8.693451,-1.98437 4.063077,-1.63799 8.126754,-3.27606 12.189732,-4.91369"
       transform="matrix(0.91814282,0,0,1.0295617,-2.9524427,-17.698564)"
       inkscape:export-xdpi="51.484177"
       inkscape:export-ydpi="51.484177" />
    <path
       style="fill:none;stroke:#000000;stroke-width:1.20000005;stroke-linecap:butt;stroke-linejoin:miter;stroke-miterlimit:4;stroke-dasharray:none;stroke-opacity:1"
       d="m 162.67103,97.929593 c -2.0944,0.176806 -4.25164,0.358917 -7.58277,0.779416 -3.33114,0.4205 -7.86624,1.081869 -12.79586,1.507111 -4.92963,0.42525 -10.25244,0.61422 -17.51298,0.64573 -7.26053,0.0315 -16.45726,-0.0945 -23.82798,-0.20473 -7.370709,-0.11024 -12.91394,-0.20473 -17.449905,-0.47247 -4.535965,-0.267734 -8.063559,-0.708682 -11.591564,-1.14968"
       id="path4762"
       inkscape:connector-curvature="0"
       inkscape:path-effect="#path-effect4764"
       inkscape:original-d="m 162.67103,97.929593 c -2.0942,0.179205 -4.25166,0.358677 -6.37788,0.538411 -4.53606,0.661284 -9.07116,1.322652 -13.60714,1.984376 -5.32325,0.18873 -10.64606,0.37771 -15.96949,0.56696 -9.19763,-0.12626 -18.39436,-0.25224 -27.592266,-0.37797 -5.543518,-0.0948 -11.086749,-0.18925 -16.630952,-0.28349 -3.527696,-0.441254 -7.05529,-0.882203 -10.583331,-1.32291"
       sodipodi:nodetypes="ccccccc"
       inkscape:export-xdpi="51.484177"
       inkscape:export-ydpi="51.484177"
       transform="matrix(0.91814282,0,0,1.0295617,-0.69670789,-1.5488469)" />
    <path
       style="fill:#d40000;stroke:#000000;stroke-width:1.5;stroke-linecap:butt;stroke-linejoin:miter;stroke-miterlimit:4;stroke-dasharray:none;stroke-opacity:1"
       d="m 39.158514,141.28603 c -0.730866,1.31038 -1.423822,4.3342 -3.786274,7.6102 -2.362453,3.27601 -6.393787,6.80343 -12.693674,9.54391 -6.299886,2.74048 -14.8667473,4.69322 -20.2854092,5.3507 -5.4186619,0.65749 -7.6881826,0.0195 -9.235393,0.47962 -1.5472104,0.46011 -2.371882,2.01862 -0.2549539,4.18516 2.1169282,2.16655 7.17524317,4.94046 12.2337762,7.7145 0,0 14.0098509,7.57187 14.0098509,7.57187 0,0 10.525012,2.93721 10.525012,2.93721 5.629658,1.38702 11.259505,2.77408 16.62527,4.02967 5.365765,1.25559 10.467629,2.37976 15.756424,2.88044 5.288796,0.50068 10.764449,0.37792 15.068931,0.25057 4.304482,-0.12735 7.437789,-0.25928 9.004305,-0.32525 1.566516,-0.066 1.566516,-0.066 -1.066405,-4.23355 -2.632921,-4.16759 -7.898714,-12.50269 -10.041601,-20.05561 -2.142887,-7.55292 -1.162854,-14.32406 -0.583645,-17.75395 0.579208,-3.42989 0.757413,-3.51899 -0.720975,-3.65175 -1.478388,-0.13277 -4.668877,-0.31252 -7.33053,-0.52411 -2.661652,-0.21159 -4.821912,-0.45657 -7.372281,-0.87977 -2.550368,-0.4232 -5.490017,-1.02449 -7.594844,-1.59245 -2.104826,-0.56796 -3.374269,-1.10246 -4.900028,-1.77068 -1.525759,-0.66821 -3.307376,-1.46994 -4.582683,-2.0722 -1.275308,-0.60226 -2.044006,-1.00491 -2.774873,0.30547 z"
       id="path5309"
       inkscape:connector-curvature="0"
       inkscape:path-effect="#path-effect5311"
       inkscape:original-d="m 39.120534,139.57291 c -0.692689,3.02355 -1.385646,6.04736 -2.078868,9.07143 -4.031893,3.52788 -8.063227,7.0553 -12.095238,10.58334 -8.567792,1.95275 -17.1346555,3.90548 -25.70238038,5.85863 -2.26946382,-0.6383 -4.53898582,-1.27627 -6.80893952,-1.91403 -0.824458,1.55834 -1.649129,3.11685 -2.4741211,4.67573 5.0589245,2.77384 15.1755991,8.32211 15.1755991,8.32211 l 14.0098509,7.57187 10.525012,2.93721 c 0,0 11.259581,2.77377 16.888974,4.16105 5.102128,1.12391 10.203992,2.24808 15.305592,3.37251 5.475918,-0.12302 10.951571,-0.24578 16.426958,-0.36828 3.133572,-0.1322 6.26688,-0.26413 9.399922,-0.39581 2.65e-4,-2.6e-4 2.65e-4,-2.6e-4 0,0 -5.265537,-8.33537 -10.531327,-16.67047 -15.797394,-25.00532 0.980207,-6.77077 1.960242,-13.54191 2.939965,-20.31248 0.178438,-0.0893 0.356624,-0.17844 0.53454,-0.26727 -3.134555,-0.17812 -6.325115,-0.35662 -9.488069,-0.53454 -2.160333,-0.24528 -4.320593,-0.49026 -6.481286,-0.73499 -2.940016,-0.60168 -5.879663,-1.20298 -8.819893,-1.80407 -1.269352,-0.53484 -2.538796,-1.06934 -3.80859,-1.60362 -1.781715,-0.80215 -3.563329,-1.60388 -5.345393,-2.40542 -0.768532,-0.40297 -1.537229,-0.80563 -2.306241,-1.20805 z"
       sodipodi:nodetypes="ccccccccccccccccccccccc"
       transform="matrix(0.91814282,0,0,1.0295617,-0.69670789,-1.5488469)" />
    <path
       style="fill:#008000;stroke:#000000;stroke-width:1.5;stroke-linecap:butt;stroke-linejoin:miter;stroke-miterlimit:4;stroke-dasharray:none;stroke-opacity:1"
       d="m 70.044324,74.63602 c 2.647586,0.494272 6.651043,1.527304 7.898185,-0.789146 1.247143,-2.316451 -0.261799,-7.982153 -1.800071,-12.691429 -1.538272,-4.709277 -3.106198,-8.462966 -4.127503,-9.499206 -1.021306,-1.036241 -1.496158,0.644261 -2.31613,3.301226 -0.819972,2.656965 -1.98411,6.287263 -2.967236,8.615283 -0.983126,2.328021 -1.784846,3.35244 -3.567173,1.659215 -1.782328,-1.693226 -4.543324,-6.101914 -6.531502,-8.675574 -1.988178,-2.573661 -3.268004,-3.350698 -3.780307,-1.16799 -0.512302,2.182707 -0.289591,7.305062 -0.957656,10.534607 -0.668065,3.229545 -2.227061,4.565827 -4.496328,3.166482 -2.269268,-1.399345 -5.259143,-5.54947 -7.308053,-7.620785 -2.04891,-2.071314 -3.162546,-2.071314 -3.255887,0.290852 -0.09334,2.362166 0.8503,7.170244 0.73897,9.197147 -0.11133,2.026903 -1.269448,1.314214 -3.029055,0.155993 -1.759608,-1.158222 -4.12034,-2.761738 -5.545651,-3.452273 -1.425312,-0.690536 -1.915297,-0.467816 -1.558666,2.33e-4 0.356631,0.468049 1.558562,1.180304 3.117558,2.204788 1.558995,1.024484 3.474554,2.360921 5.345376,4.142653 1.870823,1.781733 3.697216,4.009042 4.632653,5.256209 0.935437,1.247166 0.979982,1.514432 1.537386,1.224542 0.557405,-0.28989 1.625624,-1.135563 2.917231,-1.759064 1.291608,-0.623501 2.806548,-1.024515 4.521331,-1.514456 1.714784,-0.489941 3.630611,-1.069144 5.367731,-1.536824 1.737119,-0.467679 3.296449,-0.824098 4.922155,-1.046785 1.625706,-0.222688 3.318748,-0.311795 4.810895,-0.378606 1.492148,-0.06681 2.784162,-0.111364 5.431747,0.382908 z"
       id="path5313"
       inkscape:connector-curvature="0"
       inkscape:path-effect="#path-effect5315"
       inkscape:original-d="m 68.688267,74.097212 c 4.003723,1.032768 8.00718,2.0658 12.010375,3.099097 -1.508678,-5.665969 -3.017619,-11.331671 -4.526826,-16.997111 -1.567331,-3.753163 -3.135257,-7.506852 -4.703283,-11.259883 -0.474728,1.680733 -0.94958,3.361235 -1.424977,5.042992 -1.16456,3.632175 -2.328699,7.262473 -3.493445,10.894108 -0.801632,1.024382 -1.603352,2.048801 -2.405425,3.073598 -2.762309,-4.411469 -5.523304,-8.820158 -8.285356,-13.229841 -1.202428,-0.757515 -2.494251,-1.514793 -3.741772,-2.271789 0.223002,5.122711 0.445712,10.245066 0.668174,15.367997 -1.558886,1.336148 -3.117882,2.672429 -4.677217,4.009043 -3.029342,-4.099142 -5.968757,-8.28562 -8.953529,-12.428034 -1.113346,-2.65e-4 -2.226982,-2.65e-4 -3.34087,0 0.935932,4.722619 1.871152,9.53235 2.80633,14.298919 -1.157952,-0.713013 -2.31607,-1.425702 -3.474503,-2.138156 -2.360766,-1.603984 -4.721498,-3.207499 -7.082642,-4.81085 -0.489741,0.222464 -0.979726,0.445182 -1.469983,0.668173 1.203759,0.712917 2.40569,1.425173 3.608139,2.138156 1.915567,1.335995 3.831127,2.67243 5.746295,4.009044 1.826553,2.226918 3.652948,4.454226 5.479023,6.681737 0.04481,0.267009 0.08935,0.534276 0.133636,0.801809 1.0702,-0.847299 2.13842,-1.692971 3.207234,-2.539061 1.51438,-0.40106 3.02932,-0.802073 4.543581,-1.202713 1.915303,-0.579229 3.83113,-1.158434 5.746295,-1.737252 1.559081,-0.356566 3.118411,-0.712983 4.677217,-1.069078 1.692637,-0.08934 3.385679,-0.178443 5.078121,-0.267269 1.291857,-0.0448 2.583871,-0.08935 3.875408,-0.133636 z"
       sodipodi:nodetypes="ccccccccccccccccccccccccccc"
       inkscape:export-xdpi="51.484177"
       inkscape:export-ydpi="51.484177"
       transform="matrix(0.91814282,0,0,1.0295617,-0.69670789,-1.5488469)" />
    <path
       style="fill:#008000;stroke:#000000;stroke-width:1.5;stroke-linecap:butt;stroke-linejoin:miter;stroke-miterlimit:4;stroke-dasharray:none;stroke-opacity:1"
       d="m -7.5648919,163.17228 c -0.4977516,-1.67819 -0.6759312,-5.15269 -0.3947853,-7.69561 0.2811458,-2.54292 1.0553605,-4.22797 2.0351376,-4.0944 0.9797772,0.13357 2.1827209,2.04937 3.0513528,3.76434 0.868632,1.71497 1.4031511,3.22944 2.27195213,2.89516 0.86880106,-0.33428 2.07139277,-2.51676 2.58357657,-5.05558 0.5121839,-2.53881 0.3339784,-5.43465 0.6902801,-5.92466 0.3563017,-0.49001 1.2472787,1.42559 2.5391638,3.16295 1.291885,1.73736 2.9844898,3.29634 4.565939,4.16497 1.5814492,0.86864 3.0514412,1.04682 3.7640462,0.245 0.712604,-0.80181 0.668052,-2.58388 -0.02701,-4.45129 -0.695064,-1.86741 -2.111297,-3.92323 -2.665288,-5.2893 -0.553991,-1.36606 -0.292204,-2.06415 0.487027,-2.06413 0.779232,3e-5 2.071615,0.71306 3.697418,1.73754 1.625803,1.02448 3.585916,2.36093 5.323423,2.96415 1.737508,0.60322 3.340844,0.46579 4.387568,0.0425 1.046725,-0.42324 1.581361,-1.13609 1.158358,-2.22699 -0.423003,-1.09091 -1.804469,-2.5615 -3.318925,-3.65281 -1.514456,-1.09132 -3.162626,-1.80404 -4.476792,-2.58363 -1.314166,-0.77959 -2.29408,-1.62588 -2.27166,-2.1159 0.02242,-0.49002 1.046931,-0.62366 2.701231,-0.64031 1.654299,-0.0166 3.936046,0.0835 5.389321,-0.21173 1.453275,-0.29526 2.076907,-0.9857 1.525603,-1.70382 -0.551304,-0.71812 -2.277307,-1.4642 -3.435491,-1.85401 -1.158185,-0.38982 -1.748302,-0.42322 -2.917797,-0.84086 -1.169495,-0.41763 -2.917688,-1.21935 -2.321818,-1.69268 0.595869,-0.47332 3.535826,-0.61809 4.827494,-0.94103 1.291668,-0.32294 0.935261,-0.82413 0.41193,-1.24169 -0.523331,-0.41756 -1.213609,-0.75156 -2.404079,-1.2098 -1.190471,-0.45823 -2.879973,-1.04024 -3.88795,-1.69183 -1.007977,-0.65159 -1.333638,-1.37231 0.396836,-1.24818 1.730474,0.12413 5.516713,1.09296 7.684666,1.57281 2.167953,0.47986 2.717466,0.47076 2.992088,0.46621 0.274623,-0.005 0.274623,-0.005 0.313955,0.17638 0.03933,0.18093 0.118116,0.54333 0.196876,0.83083 0.07876,0.2875 0.157462,0.5 0.330804,0.78759 0.173342,0.2876 0.440892,0.64958 0.783452,1.18507 0.34256,0.53549 0.759854,1.2441 1.126059,1.76388 0.366205,0.51977 0.681148,0.85047 1.209099,1.42139 0.52795,0.57092 1.283175,1.39769 2.113961,2.20092 0.830785,0.80322 1.744208,1.59066 2.697026,2.34661 0.952817,0.75595 1.945027,1.48042 2.763967,2.06313 0.818941,0.5827 1.464678,1.0237 1.5735,1.45866 0.108823,0.43496 -0.319532,0.8643 -0.654184,1.35891 -0.334653,0.49461 -0.591574,1.09191 -0.897236,1.81456 -0.305662,0.72266 -0.667691,1.58838 -1.132368,2.50988 -0.464678,0.9215 -1.031434,1.89758 -1.685106,2.81905 -0.653672,0.92147 -1.393635,1.78738 -2.248172,2.67369 -0.854538,0.88631 -1.838517,1.8068 -2.925348,2.64951 -1.086831,0.84271 -2.283418,1.6142 -3.412938,2.29333 -1.129519,0.67914 -2.177764,1.25802 -3.398517,1.82509 -1.220752,0.56707 -2.606252,1.11812 -4.102595,1.62216 -1.496343,0.50404 -3.102372,0.96066 -4.685301,1.38592 -1.582929,0.42527 -3.141777,0.81892 -5.1027692,1.22845 -1.9609927,0.40952 -4.3228705,0.83466 -6.9058904,1.24417 -2.58301982,0.40951 -5.3859849,0.80318 -7.1961962,1.05922 -1.8102113,0.25604 -2.6271404,0.37436 -3.1248921,-1.30383 z"
       id="path5317"
       inkscape:connector-curvature="0"
       inkscape:path-effect="#path-effect5319"
       inkscape:original-d="m -7.8844509,164.96885 c -0.1779151,-3.47477 -0.3560948,-6.94927 -0.5345391,-10.42351 0.7574738,-1.60377 1.514792,-3.29659 2.2717908,-4.94449 1.202745,1.9148 2.4056903,3.8306 3.6081387,5.7463 0.5348234,1.51432 1.0693427,3.02879 1.60361717,4.54358 1.20309834,-2.18319 2.40569033,-4.36567 3.60813843,-6.5481 -0.1778893,-2.89527 -0.3560946,-5.79111 -0.5345389,-8.68626 0.8910869,1.915 1.7820615,3.8306 2.6726953,5.74629 1.6930743,1.5589 3.3856784,3.11788 5.0781209,4.67722 1.4702376,0.17791 2.9402296,0.35609 4.4099476,0.53454 -0.04427,-1.78179 -0.08883,-3.56386 -0.133635,-5.34539 -1.33589,-1.95996 -2.761521,-4.00931 -4.142678,-6.01357 0.312071,-0.71296 0.534804,-1.4257 0.801809,-2.13815 1.291489,0.71213 2.58387,1.42517 3.875408,2.13815 1.960103,1.33599 3.920218,2.67243 5.879929,4.00905 1.514748,-0.1339 3.118409,-0.26754 4.677217,-0.40091 0.534706,-0.71285 1.069343,-1.4257 1.603617,-2.13816 -1.380054,-1.46963 -2.76152,-2.94022 -4.142678,-4.40994 -1.647887,-0.71298 -3.296059,-1.4257 -4.944486,-2.13816 -0.979799,-0.84668 -1.959712,-1.69297 -2.939964,-2.53906 1.024819,-0.1339 2.049331,-0.26753 3.073599,-0.4009 2.284372,0.10001 4.566119,0.20018 6.848782,0.30067 0.623893,-0.6907 1.247522,-1.38115 1.870885,-2.07133 -1.725848,-0.74639 -3.45185,-1.49247 -5.178345,-2.23838 -0.589996,-0.0337 -1.180113,-0.0671 -1.770661,-0.10023 -1.748313,-0.80216 -3.496506,-1.60388 -5.245165,-2.40543 2.94024,-0.14503 5.880197,-0.2898 8.819894,-0.43431 -0.356047,-0.50133 -0.712452,-1.00253 -1.069077,-1.50339 -0.690184,-0.33436 -1.380464,-0.66836 -2.071339,-1.00226 -1.690112,-0.58257 -3.379613,-1.16458 -5.069923,-1.74651 -0.325433,-0.72107 -0.651096,-1.44179 -0.977051,-2.16231 3.786664,0.96861 7.572903,1.93744 11.358956,2.90656 0.549775,-0.009 1.099281,-0.0185 1.648531,-0.0273 2.65e-4,-2.6e-4 2.65e-4,-2.6e-4 0,0 0.07897,0.36179 0.157755,0.72419 0.236236,1.08668 0.07905,0.21246 0.157752,0.42496 0.236233,0.63784 0.268184,0.36221 0.535731,0.72419 0.803201,1.08668 0.417663,0.70853 0.834961,1.41714 1.252045,2.12611 0.31528,0.33051 0.630224,0.6612 0.944941,0.99219 0.732607,0.8187 1.49642,1.63763 2.244233,2.45685 0.913722,0.7872 1.827149,1.57463 2.740326,2.36235 0.992431,0.72417 1.98464,1.44864 2.976563,2.17336 0.645946,0.44069 1.291685,0.88168 1.937128,1.32292 -0.428008,0.42899 -0.856361,0.85833 -1.284938,1.28789 -0.233024,0.56297 -0.497523,1.15701 -0.746684,1.73592 -0.362161,0.8664 -0.724188,1.73212 -1.08668,2.59858 -0.56691,0.97654 -1.133666,1.95262 -1.700893,2.92932 -0.740177,0.86621 -1.480142,1.73212 -2.220611,2.59858 -0.976492,0.89773 -1.952611,1.82663 -2.929315,2.74033 -1.196994,0.77166 -2.393585,1.54314 -3.590775,2.31511 -1.055189,0.59835 -2.110101,1.16516 -3.165549,1.74814 -1.386062,0.55111 -2.771561,1.10216 -4.157738,1.65364 -1.606505,0.45656 -3.212533,0.91318 -4.819197,1.37017 -1.559192,0.39353 -3.118039,0.78718 -4.677455,1.18117 -2.3625586,0.42505 -4.7244379,0.85018 -7.0870535,1.27567 -2.80341758,0.39351 -5.6063822,0.78719 -8.4099701,1.18118 -0.8168362,0.11808 -1.6337645,0.23641 -2.4510433,0.35501 z"
       sodipodi:nodetypes="ccccccccccccccccccccccccccccccccccccccccccccccccccccccccc"
       inkscape:export-xdpi="51.484177"
       inkscape:export-ydpi="51.484177"
       transform="matrix(0.91814282,0,0,1.0295617,-0.69670789,-1.5488469)" />
    <path
       style="fill:#f9f9f9;stroke:#000000;stroke-width:1;stroke-linecap:butt;stroke-linejoin:miter;stroke-miterlimit:4;stroke-dasharray:none;stroke-opacity:1"
       d="m 170.03555,114.33698 c 0.66902,1.70785 0.50844,5.8674 -0.11521,6.80546 -0.62366,0.93805 -1.7104,-1.34519 -2.73164,-2.90625 -1.02125,-1.56107 -1.9767,-2.39968 -2.48158,-2.83758 -0.50488,-0.4379 -0.55876,-0.47471 -0.29838,1.12847 0.26037,1.60317 0.83493,4.8457 0.57367,5.60622 -0.26126,0.76051 -1.35776,-0.96131 -2.09406,-2.25595 -0.73631,-1.29465 -1.11125,-2.16008 -1.74134,-2.69782 -0.63009,-0.53774 -1.51554,-0.74786 -1.70537,-0.80246 -0.18982,-0.0546 0.31519,0.0462 0.63674,1.63529 0.32155,1.58912 0.45759,4.656 -0.03,4.87634 -0.48756,0.22035 -1.59879,-2.41122 -2.51753,-3.86983 -0.91873,-1.4586 -1.64501,-1.74424 -1.88914,-1.33775 -0.24413,0.40649 -0.006,1.50511 0.0347,2.74746 0.0405,1.24234 -0.1193,2.64859 -0.58517,2.44032 -0.46586,-0.20828 -1.25836,-2.02733 -1.88716,-3.20145 -0.6288,-1.17411 -1.08492,-1.69004 -1.37564,-1.94809 -0.29072,-0.25804 -0.41726,-0.25804 -0.32766,0.71333 0.0896,0.97137 0.41162,3.01946 0.29913,3.44486 -0.1125,0.4254 -0.65091,-0.71933 -1.13198,-1.67119 -0.48107,-0.95185 -0.9035,-1.70838 -1.22943,-1.79367 -0.32592,-0.0853 -0.5534,0.50145 -0.71597,1.28325 -0.16258,0.7818 -0.25966,1.75694 -0.39806,1.69279 -0.1384,-0.0641 -0.31789,-1.16739 -0.6313,-1.85851 -0.31342,-0.69111 -0.75945,-0.96856 -0.89486,-0.5708 -0.13542,0.39776 0.0414,1.46926 -0.11958,1.64255 -0.16097,0.17329 -0.66019,-0.55202 -0.98064,-0.98211 -0.32045,-0.43009 -0.46104,-0.56353 -0.59999,-0.66034 -0.13895,-0.0968 -0.27619,-0.15688 -0.39489,0.17436 -0.1187,0.33124 -0.21836,1.05269 -0.3962,1.14036 -0.17783,0.0877 -0.4334,-0.45948 -0.56911,-0.83574 -0.1357,-0.37626 -0.15157,-0.58152 0.12979,-0.73887 0.28137,-0.15736 0.85975,-0.26696 1.70399,-0.40231 0.84423,-0.13535 1.95628,-0.29676 3.14136,-0.46952 1.18508,-0.17276 2.50917,-0.36653 3.89491,-0.55549 1.38574,-0.18896 2.86649,-0.378 4.18929,-0.58272 1.32281,-0.20473 2.48847,-0.42525 3.60651,-0.64571 1.11804,-0.22046 2.18925,-0.44101 3.17537,-0.76227 0.98612,-0.32126 1.88792,-0.74346 3.08818,-1.32624 1.20025,-0.58278 2.69917,-1.32624 3.3682,0.38161 z"
       id="path5321"
       inkscape:connector-curvature="0"
       inkscape:path-effect="#path-effect5323"
       inkscape:original-d="m 170.86513,111.88582 c -0.16031,4.15902 -0.32088,8.31857 -0.48171,12.4779 -1.08642,-2.28338 -2.17316,-4.56662 -3.26023,-6.84974 -0.95549,-0.83914 -1.91094,-1.67775 -2.86712,-2.5165 -0.0536,-0.0371 -0.10749,-0.0739 -0.16163,-0.11041 0.57497,3.24313 1.14953,6.48566 1.72408,9.72992 -1.09706,-1.72338 -2.19356,-3.44519 -3.29128,-5.16825 -0.37488,-0.86618 -0.74982,-1.73161 -1.12506,-2.59688 -0.88519,-0.21038 -1.77064,-0.4205 -2.65665,-0.63042 0.50635,0.10072 1.01136,0.20149 1.51791,0.30288 0.13677,3.07715 0.27281,6.14403 0.40883,9.21675 -1.1111,-2.63216 -2.22233,-5.26373 -3.33389,-7.89518 -0.72611,-0.28594 -1.45238,-0.57158 -2.17916,-0.85705 0.2387,1.0987 0.47706,2.19732 0.7152,3.29642 -0.15723,1.38569 -0.31703,2.79194 -0.47247,4.15774 -0.7762,-1.78252 -1.5687,-3.60157 -2.36417,-5.42657 -0.46217,-0.52334 -0.91829,-1.03927 -1.37483,-1.55511 -0.12518,-2.6e-4 -0.25172,-2.7e-4 -0.37798,0 0.30576,1.94269 0.62778,3.99078 0.94142,5.98747 -0.53861,-1.14599 -1.07702,-2.29072 -1.61614,-3.43613 -0.42302,-0.75833 -0.84545,-1.51486 -1.26953,-2.2736 -0.22795,0.58839 -0.45543,1.17513 -0.68361,1.76327 -0.0969,0.97543 -0.19396,1.95057 -0.29135,2.92644 -0.17934,-1.10424 -0.35883,-2.20748 -0.53874,-3.31147 -0.44703,-0.2785 -0.89306,-0.55594 -1.34134,-0.83437 0.17756,1.0742 0.35436,2.1457 0.53081,3.21687 -0.49838,-0.72475 -0.99759,-1.45006 -1.49786,-2.17625 -0.14069,-0.13405 -0.28128,-0.26749 -0.42225,-0.40079 -0.13703,-0.0604 -0.27428,-0.12044 -0.41199,-0.18034 -0.0996,0.72273 -0.19927,1.44418 -0.29936,2.16715 -0.25549,-0.5478 -0.51105,-1.09496 -0.7669,-1.64187 -0.0156,-0.20548 -0.0315,-0.41074 -0.0476,-0.61578 0.57854,-0.10985 1.15692,-0.21946 1.73444,-0.32869 1.11096,-0.16148 2.22301,-0.32289 3.33416,-0.48394 1.25835,-0.18897 2.5831,-0.37824 3.87425,-0.56696 1.48033,-0.18921 2.96108,-0.37824 4.44122,-0.56697 1.16546,-0.2207 2.33112,-0.44123 3.49628,-0.66145 1.07092,-0.2207 2.14213,-0.44124 3.2128,-0.66146 0.90156,-0.42222 1.80336,-0.84441 2.70466,-1.26623 1.49921,-0.74374 2.99813,-1.4872 4.49679,-2.2304 z"
       sodipodi:nodetypes="cccccccccccccccccccccccccccccccccccccccc"
       inkscape:export-xdpi="51.484177"
       inkscape:export-ydpi="51.484177"
       transform="matrix(0.91814282,0,0,1.0295617,-0.69670789,-1.5488469)" />
  </g>
</svg>
