<?xml version="1.0" encoding="UTF-8" standalone="no"?>
<!-- Created with Inkscape (http://www.inkscape.org/) -->

<svg
   xmlns:dc="http://purl.org/dc/elements/1.1/"
   xmlns:cc="http://creativecommons.org/ns#"
   xmlns:rdf="http://www.w3.org/1999/02/22-rdf-syntax-ns#"
   xmlns:svg="http://www.w3.org/2000/svg"
   xmlns="http://www.w3.org/2000/svg"
   xmlns:sodipodi="http://sodipodi.sourceforge.net/DTD/sodipodi-0.dtd"
   xmlns:inkscape="http://www.inkscape.org/namespaces/inkscape"
   width="70mm"
   height="60mm"
   viewBox="0 0 70 60"
   version="1.1"
   id="svg8"
   inkscape:version="0.92.3 (2405546, 2018-03-11)"
   sodipodi:docname="Mary.svg"
   inkscape:export-filename="/home/nathan/Documents/path1.png"
   inkscape:export-xdpi="100.1"
   inkscape:export-ydpi="100.1">
  <defs
     id="defs2" />
  <sodipodi:namedview
     id="base"
     pagecolor="#ffffff"
     bordercolor="#666666"
     borderopacity="1.0"
     inkscape:pageopacity="0.0"
     inkscape:pageshadow="2"
     inkscape:zoom="4"
     inkscape:cx="99.889"
     inkscape:cy="134.24711"
     inkscape:document-units="mm"
     inkscape:current-layer="g960"
     showgrid="false"
     inkscape:window-width="1920"
     inkscape:window-height="1025"
     inkscape:window-x="1920"
     inkscape:window-y="0"
     inkscape:window-maximized="1"
     inkscape:snap-grids="true"
     fit-margin-top="0"
     fit-margin-left="0"
     fit-margin-right="0"
     fit-margin-bottom="0" />
  <metadata
     id="metadata5">
    <rdf:RDF>
      <cc:Work
         rdf:about="">
        <dc:format>image/svg+xml</dc:format>
        <dc:type
           rdf:resource="http://purl.org/dc/dcmitype/StillImage" />
        <dc:title></dc:title>
      </cc:Work>
    </rdf:RDF>
  </metadata>
  <g
     inkscape:label="Layer 1"
     inkscape:groupmode="layer"
     id="layer1"
     transform="translate(-68.753869,-132.64359)">
    <path
       style="fill:#ff0000;stroke-width:0.17857143"
       d=""
       id="path33139"
       inkscape:connector-curvature="0"
       transform="scale(0.26458333)" />
    <path
       style="fill:#ff0000;stroke-width:0.06313454"
       d=""
       id="path33295"
       inkscape:connector-curvature="0"
       transform="scale(0.26458333)" />
    <g
       id="g960"
       transform="translate(5.0528665,-8.5438417)">
      <path
         sodipodi:nodetypes="ccccccc"
         inkscape:connector-curvature="0"
         id="path15271-3"
         d="m 89.626704,162.97858 c -3.186936,-3.45019 -7.930578,-8.32367 -7.930578,-8.32367 0,0 -4.838375,-3.89541 -1.390939,3.16464 1.824058,2.8089 0.841019,-1.61608 3.44824,2.09747 2.606747,3.71353 2.424668,3.4455 2.424668,3.4455 l 2.670603,3.93134 v 0"
         style="fill:#282828;fill-opacity:1;stroke:#000000;stroke-width:0.97202593px;stroke-linecap:butt;stroke-linejoin:miter;stroke-opacity:1"
         inkscape:export-xdpi="96"
         inkscape:export-ydpi="96" />
      <path
         sodipodi:nodetypes="ccccscsccccscccccccccccccccccccccsccccccccccscsccccccccccccsccccscccccc"
         inkscape:connector-curvature="0"
         id="path15273"
         d="m 99.105565,160.34662 c 1.346005,0.11541 6.279535,1.98314 6.630165,2.81644 0.26378,0.55547 -0.12236,0.59437 0.16278,1.09979 0.028,0.19172 0.56453,0.24339 0.83187,0.55676 0.20177,0.16125 -0.14212,0.7071 -0.043,1.01846 0.0994,0.3113 0.75221,0.50499 0.73792,0.72081 0.0717,0.35208 -0.25698,0.79747 -0.18562,1.1132 0.0937,0.41251 0.86844,0.53998 0.85047,0.98807 0.004,0.51754 -0.48126,0.58233 -0.54689,1.12144 -0.15146,0.79298 0.70791,1.13601 0.84429,1.376 0.14273,1.1266 -0.49556,1.13803 -0.5579,1.83842 -0.001,0.82781 0.40277,1.24773 0.48754,1.6259 0.0684,0.29012 -0.4233,1.08789 -0.33448,1.5926 0.001,0.32489 0.28982,1.23339 0.25389,1.8565 -0.0353,0.62283 -0.28306,0.39077 -0.39225,1.18096 -0.10688,0.79016 0.29242,0.7871 0.22732,1.47708 -0.0647,0.68979 -0.91003,0.90585 -0.91003,0.90585 -0.15518,0.26021 0.39098,0.65171 0.27856,0.86169 -0.15991,0.33843 -0.94367,0.35181 -1.04586,0.60596 -0.0511,0.21886 0.34306,0.65767 0.18535,0.80051 -0.16425,0.14644 -0.49498,0.24192 -0.93528,0.60531 -0.18991,0.23983 -0.39758,0.0981 -1.47214,0.55283 -0.48265,0.34006 -1.03765,1.2518 -1.56267,1.62039 -0.54054,0.32025 -1.53796,0.31828 -1.95659,0.45297 -0.41865,0.13594 -0.41083,0.67762 -0.84792,0.76403 -0.43737,0.0856 -0.17866,-0.69839 -0.853985,-0.79681 -0.67506,-0.0987 0.0478,1.33858 -0.65655,1.30713 -0.70453,-0.0339 -0.37509,-1.68247 -1.2015,-1.52838 -0.82641,0.15308 -0.57007,1.74433 -1.04488,1.73419 -0.47462,-0.003 -1.06108,-1.66562 -1.27621,-1.72066 -0.21515,-0.0559 0.18043,2.39481 -0.86684,1.69298 -1.04736,-0.70173 -0.005,-1.87956 -0.75443,-2.08926 -0.74574,-0.2101 0.8647,0.30237 0,0 -0.86461,-0.3019 -1.29583,-0.56899 -1.73012,-0.76085 -0.43427,-0.19101 0.89807,0.31675 0,0 -0.89799,-0.31676 -1.44453,-0.99938 -1.83068,-1.20992 -0.38617,-0.21046 -0.98677,1.24123 -1.923118,0.46851 -0.936348,-0.77236 0.759728,-1.54073 0.295103,-2.02517 -0.464695,-0.4844 -1.871049,0.53152 -2.125417,-0.33938 -0.254368,-0.87043 1.384647,-0.7858 1.198023,-1.26721 -0.186578,-0.48175 -1.538815,-0.0377 -1.703793,-0.75225 -0.165173,-0.71118 1.462283,-0.87117 1.30907,-1.33799 -0.153255,-0.46699 -1.878896,0.36819 -1.985829,-0.83653 -0.106763,-1.20477 1.33839,-0.0471 1.180328,-0.95603 -0.158188,-0.90807 -1.134949,-0.14116 -1.184949,-0.84221 -0.04991,-0.70074 1.056351,-0.13426 1.095732,-0.67406 0.03927,-0.54139 -0.931445,-0.33145 -1.095502,-0.68323 -0.16411,-0.35181 1.148757,-0.25039 1.054487,-0.85155 -0.09433,-0.60065 -1.157514,-0.27211 -1.128897,-0.69805 0.0291,-0.42655 1.127109,-0.007 1.126184,-0.38132 -8.14e-4,-0.35938 -0.868583,-0.38343 -0.840981,-1.16925 0.02814,-0.78624 1.293204,-0.30745 1.380761,-0.8677 0.08754,-0.55992 -1.423875,-0.0338 -1.103404,-0.84606 0.320501,-0.81643 1.435606,0.27503 1.811145,-0.75746 0.375597,-1.0317 -1.608634,0.209 -1.243987,-0.70832 0.364728,-0.91698 1.675436,-0.1776 1.82196,-0.87239 0.146663,-0.6937 -1.864126,0.33452 -1.295951,-0.77179 0.568082,-1.10653 2.005595,-0.11217 2.156045,-0.72483 0.1506,-0.6121 -1.237038,-0.9054 -0.997211,-1.35835 0.239679,-0.45295 1.625251,0.4777 1.861171,-0.0572 0.23585,-0.53452 -1.927782,-1.32979 -1.305727,-1.65389 0.622067,-0.32416 1.547547,0.56322 1.927927,-0.009 0.38028,-0.59044 -1.19964,-0.80878 -0.71907,-1.35505 0.48069,-0.5462 1.87385,0.54755 2.14016,0.30614 0.26629,-0.24268 -0.44492,-1.43366 0.10371,-1.59088 0.54841,-0.15707 0.98734,1.83278 1.69785,1.30816 0.71053,-0.52454 0.1743,-1.47983 1.09688,-1.67125 0.92279,-0.19129 -0.0249,1.86503 1.1908,1.64311 1.21554,-0.22189 0.8846,-2.0046 1.60001,-2.08804 0.71544,-0.0825 2.12151,0.25776 2.12151,0.25776 z"
         style="fill:#ffffff;fill-opacity:1;stroke:#000000;stroke-width:0.81798273px;stroke-linecap:butt;stroke-linejoin:miter;stroke-opacity:1"
         inkscape:export-xdpi="96"
         inkscape:export-ydpi="96" />
      <path
         sodipodi:nodetypes="csccccc"
         inkscape:connector-curvature="0"
         id="path15271"
         d="m 101.88221,171.21158 c 1.1257,0.75513 4.27391,-0.84866 3.84649,0.2649 -0.42741,1.11356 -1.87788,6.46223 -1.87788,6.46223 0,0 -0.55913,3.38868 2.00906,0.19645 0.92144,-1.48372 -0.94925,-0.0373 0.2256,-2.09247 1.17495,-2.05376 1.74417,-3.04668 1.74417,-3.04668 1.28063,-4.42842 -1.91168,-4.53716 -5.18682,-5.20222"
         style="fill:#282828;fill-opacity:1;stroke:#000000;stroke-width:0.5068987px;stroke-linecap:butt;stroke-linejoin:miter;stroke-opacity:1"
         inkscape:export-xdpi="96"
         inkscape:export-ydpi="96" />
      <g
         id="g83"
         transform="matrix(3.0915853,0,0,3.0915853,-191.17487,-357.62898)"
         inkscape:export-xdpi="96"
         inkscape:export-ydpi="96">
        <path
           style="fill:#282828;fill-opacity:1;stroke:#000000;stroke-width:0.26458332px;stroke-linecap:butt;stroke-linejoin:miter;stroke-opacity:1"
           d="m 95.853568,165.34492 0.18899,1.27567 c 0,0 -0.0591,0.69689 -0.24805,0.82682 -0.18899,0.12993 -0.57877,0.38979 -0.72052,0.42522 -0.14174,0.0354 -0.38978,0.50791 -0.7087,0.82683 -0.31892,0.31891 -0.74414,1.01581 -1.71271,1.08668 -0.96856,0.0709 -1.10594,-0.15019 -1.42922,-0.8977 -0.33672,-0.7786 -0.25024,-1.13036 -0.35435,-1.92532 -0.18899,-1.16936 0.22442,-2.17335 0.22442,-2.17335 0,0 -1.84263,-2.95294 1.15755,-0.85045 0.53153,-0.10631 1.86626,-0.15355 2.33873,0.18899 1.14574,-0.2953 3.18917,-1.22842 1.26386,1.21661 z"
           id="path15237"
           inkscape:connector-curvature="0"
           sodipodi:nodetypes="ccccccscc" />
        <path
           style="fill:#ffffff;fill-opacity:1;stroke:#ffffff;stroke-width:0.26499999;stroke-linecap:butt;stroke-linejoin:miter;stroke-miterlimit:4;stroke-dasharray:none;stroke-opacity:1"
           d="m 91.918193,166.03471 c 0.28348,0.0236 0.4016,-0.14174 0.56696,0.0945 0.16536,0.23623 0,0.28348 -0.11812,0.15355 -0.11812,-0.12993 0.0827,-0.0472 -0.16536,-0.22444 -0.28348,-0.18899 -0.28348,-0.0236 -0.28348,-0.0236 z"
           id="path15239"
           inkscape:connector-curvature="0"
           sodipodi:nodetypes="cccccc" />
        <path
           style="fill:#ffffff;fill-opacity:1;stroke:#ffffff;stroke-width:0.26499999;stroke-linecap:butt;stroke-linejoin:miter;stroke-miterlimit:4;stroke-dasharray:none;stroke-opacity:1"
           d="m 93.158433,166.09377 c 0.28348,0.0236 0.4016,-0.14174 0.56696,0.0945 0.16537,0.23623 0,0.28348 -0.11812,0.15355 -0.11811,-0.12993 0.0827,-0.0472 -0.16536,-0.22444 -0.28348,-0.18899 -0.28348,-0.0236 -0.28348,-0.0236 z"
           id="path15239-6"
           inkscape:connector-curvature="0"
           sodipodi:nodetypes="cccccc" />
      </g>
      <path
         sodipodi:nodetypes="cccccccccccccc"
         inkscape:connector-curvature="0"
         id="path15281"
         d="m 89.353165,184.23441 c 0.5478,1.13196 2.30059,2.1543 3.39615,2.4099 1.09547,0.25513 1.93528,-0.29174 1.31458,0.58411 -0.62078,0.87662 -2.99442,3.79793 -2.88488,4.82047 0.10915,1.02257 0.18282,1.38767 0.2192,1.6798 0.0361,0.29167 -0.1093,0.6207 -0.29216,0.73015 -0.1828,0.1069 -0.4382,0.40184 -0.40165,0.58452 0.0361,0.18179 0.91293,0.40155 0.6938,1.05896 -0.40167,0.98602 -1.86237,0.94922 -3.286553,0.76686 0,0 -0.803362,-0.51155 -0.43818,-1.24161 0.474702,-1.38791 0.730343,0.14542 0.766863,-1.059 0.0364,-1.20508 -0.1828,-1.75282 -0.47472,-2.19096 -0.29214,-0.43837 -0.146223,-6.82874 1.38761,-8.1432 z"
         style="fill:#282828;fill-opacity:1;stroke:#000000;stroke-width:0.81798273px;stroke-linecap:butt;stroke-linejoin:miter;stroke-opacity:1"
         inkscape:export-xdpi="96"
         inkscape:export-ydpi="96" />
      <path
         sodipodi:nodetypes="cscccc"
         inkscape:connector-curvature="0"
         id="path15277"
         d="m 108.29441,179.88914 c 0.87641,0.36514 1.99827,0.69674 2.84817,0.43814 0.83989,-0.25519 1.65239,0.26579 1.22333,1.05898 -0.79762,1.90808 -1.75607,1.72881 -3.68806,1.77109 l -2.28244,-0.0561 z"
         style="fill:#282828;fill-opacity:1;stroke:#000000;stroke-width:0.81798273px;stroke-linecap:butt;stroke-linejoin:miter;stroke-opacity:1"
         inkscape:export-xdpi="96"
         inkscape:export-ydpi="96" />
      <path
         sodipodi:nodetypes="cscccccccscscccc"
         inkscape:connector-curvature="0"
         id="path15279"
         d="m 103.15133,180.35765 c -2.92139,0.80324 -5.906665,0.71703 -4.235955,10.11509 0.584325,3.28662 -0.21914,4.52815 -0.21914,4.52815 0,0 -1.42411,1.31437 0.43821,1.97194 1.862355,0.65732 3.688175,0.83993 4.053385,-0.0356 0.36513,-0.87636 0.32869,-1.24149 0,-1.57032 -0.32861,-0.32856 -0.43817,-0.36501 -0.65733,-0.65738 -0.21933,-0.29155 -0.32852,-0.21798 -0.21933,-0.54754 0.1081,-0.32878 0.51129,0.36513 0.65742,-0.0712 0.14638,-0.43824 0.14638,-0.3652 0.14638,-0.5843 0,-0.2186 0.4016,-0.0712 -0.14638,-0.51112 -0.5478,-0.43833 -1.97199,-1.972 -0.4383,-4.92999 1.53369,-2.95782 1.97194,-3.94374 2.19115,-5.03915 0.21943,-1.0955 0.54769,-2.37372 0.32863,-2.55627 -0.21952,-0.18253 -1.89887,-0.10688 -1.89887,-0.10688 z"
         style="fill:#282828;fill-opacity:1;stroke:#000000;stroke-width:0.81798273px;stroke-linecap:butt;stroke-linejoin:miter;stroke-opacity:1"
         inkscape:export-xdpi="96"
         inkscape:export-ydpi="96" />
    </g>
  </g>
</svg>
