<?xml version="1.0" encoding="UTF-8" standalone="no"?>
<!-- Created with Inkscape (http://www.inkscape.org/) -->

<svg
   xmlns:dc="http://purl.org/dc/elements/1.1/"
   xmlns:cc="http://creativecommons.org/ns#"
   xmlns:rdf="http://www.w3.org/1999/02/22-rdf-syntax-ns#"
   xmlns:svg="http://www.w3.org/2000/svg"
   xmlns="http://www.w3.org/2000/svg"
   xmlns:sodipodi="http://sodipodi.sourceforge.net/DTD/sodipodi-0.dtd"
   xmlns:inkscape="http://www.inkscape.org/namespaces/inkscape"
   width="70mm"
   height="60mm"
   viewBox="0 0 70 60"
   version="1.1"
   id="svg8"
   inkscape:version="0.92.3 (2405546, 2018-03-11)"
   sodipodi:docname="Mary1.svg"
   inkscape:export-filename="/home/nathan/Documents/file1.png"
   inkscape:export-xdpi="195.8"
   inkscape:export-ydpi="195.8">
  <defs
     id="defs2" />
  <sodipodi:namedview
     id="base"
     pagecolor="#ffffff"
     bordercolor="#666666"
     borderopacity="1.0"
     inkscape:pageopacity="0.0"
     inkscape:pageshadow="2"
     inkscape:zoom="2.8284271"
     inkscape:cx="94.958834"
     inkscape:cy="121.86992"
     inkscape:document-units="mm"
     inkscape:current-layer="g960"
     showgrid="false"
     inkscape:window-width="1920"
     inkscape:window-height="1025"
     inkscape:window-x="1920"
     inkscape:window-y="0"
     inkscape:window-maximized="1"
     inkscape:snap-grids="true"
     fit-margin-top="0"
     fit-margin-left="0"
     fit-margin-right="0"
     fit-margin-bottom="0" />
  <metadata
     id="metadata5">
    <rdf:RDF>
      <cc:Work
         rdf:about="">
        <dc:format>image/svg+xml</dc:format>
        <dc:type
           rdf:resource="http://purl.org/dc/dcmitype/StillImage" />
        <dc:title></dc:title>
      </cc:Work>
    </rdf:RDF>
  </metadata>
  <g
     inkscape:label="Layer 1"
     inkscape:groupmode="layer"
     id="layer1"
     transform="translate(-68.753869,-132.64359)">
    <path
       style="fill:#ff0000;stroke-width:0.17857143"
       d=""
       id="path33139"
       inkscape:connector-curvature="0"
       transform="scale(0.26458333)" />
    <path
       style="fill:#ff0000;stroke-width:0.06313454"
       d=""
       id="path33295"
       inkscape:connector-curvature="0"
       transform="scale(0.26458333)" />
    <g
       id="g960"
       transform="translate(9.8815123,-8.8745709)">
      <path
         sodipodi:nodetypes="ccccccccccc"
         inkscape:connector-curvature="0"
         id="path15289"
         d="m 100.48211,170.02995 c 5.29663,-2.69382 6.45067,-4.27393 6.34564,-4.30641 1.06482,-1.74285 0.47261,-4.26949 0.10768,-6.68863 -0.55752,-0.22087 -1.18377,-1.69473 -1.18377,-1.69473 0,0 0.72006,-1.79892 1.10067,-2.3224 0.38048,-0.52349 0.27604,-1.18801 1.16439,-1.15267 0.88853,0.0349 1.91766,0.14664 1.9089,1.23609 -0.008,1.08969 -0.42529,2.20169 -0.71502,3.13916 -0.28981,0.93736 -0.5444,-1.22701 -0.18996,1.51846 0.35334,2.74567 0.73294,0.58041 1.11993,5.16737 0.38668,4.58707 -8.5922,6.90964 -8.28107,7.62503"
         style="fill:#282828;fill-opacity:1;stroke:#000000;stroke-width:0.84532982px;stroke-linecap:butt;stroke-linejoin:miter;stroke-opacity:1" />
      <path
         inkscape:connector-curvature="0"
         id="path15285"
         d="m 95.088653,160.92555 c -2.791768,-0.20293 -3.268415,0.68089 -3.268415,0.68089 0,0 -9.532916,10.82684 -9.941481,15.38864 -0.408546,4.56249 -0.340457,5.03905 -0.817099,5.3115 -0.476665,0.27255 -0.817118,0.7489 -1.021406,1.29383 -0.204291,0.54451 -0.61281,0.68088 -0.61281,1.77048 0,1.0891 1.429941,1.63405 1.429941,1.63405 v 0"
         style="fill:#ffffff;fill-opacity:1;stroke:#000000;stroke-width:0.7626338px;stroke-linecap:butt;stroke-linejoin:miter;stroke-opacity:1" />
      <path
         sodipodi:nodetypes="cscc"
         inkscape:connector-curvature="0"
         id="path15287"
         d="m 96.178119,187.89055 c 5.447391,-1.9067 7.558241,-8.9202 8.307251,-14.63992 0.74894,-5.71957 -2.58756,-11.23541 -2.58756,-11.23541 l -8.647674,2.17914"
         style="fill:#ffffff;fill-opacity:1;stroke:#000000;stroke-width:0.7626338px;stroke-linecap:butt;stroke-linejoin:miter;stroke-opacity:1" />
      <path
         sodipodi:nodetypes="cscccssccscsccccccsccccscccccccccsccc"
         inkscape:connector-curvature="0"
         id="path15283"
         d="m 84.335966,196.6685 c 1.026453,0.0915 2.649721,0.61815 3.875393,1.23131 1.225633,0.61266 1.08945,-0.13566 1.08945,-0.13566 l 0.204365,-0.34046 c 0,0 0.136144,0.34043 0,0 -0.136124,-0.34042 0.406644,-0.45834 0.406644,-0.45834 -0.09553,-0.25481 0.546624,0.11836 0.546624,-0.22331 0,-0.34045 0.612836,-0.0686 0.476649,-0.34045 -0.136088,-0.27264 1.089498,-0.13611 -0.204305,-0.613 -1.293764,-0.47672 -2.247041,0.0687 -2.247041,-0.88528 0,-0.95335 0.136095,-3.74502 2.315131,-4.28973 2.178975,-0.54461 5.651667,-1.97451 5.651667,-0.34044 0,1.63412 -0.340461,2.51947 0,3.33635 0.340443,0.8173 1.157607,1.49821 1.770389,1.5665 0.612854,0.0681 0.885234,0.34044 1.293796,0.40822 0.408463,0.0685 0.885162,0.68093 1.429932,0 0.5447,-0.6809 0.88519,-0.54459 1.15757,-0.6809 0.27232,-0.13521 1.02138,-0.0684 0.81704,-0.61291 -0.20435,-0.54449 -0.34044,-0.95309 -1.02136,-0.95309 -0.68089,0 -0.27232,0.13587 -1.08947,-0.68103 -0.817097,-0.81708 -0.6809,-2.0427 -0.6809,-2.0427 0,0 1.08948,-2.65547 0.40855,-3.8811 -0.680909,-1.22571 -2.996059,-0.34046 -3.40462,-1.77056 -0.408575,-1.42991 -1.089488,-5.24309 -1.089488,-6.40048 0,-1.15773 0.476662,-4.15366 0.612823,-5.03879 0.136143,-0.88556 1.498036,-3.40468 1.974718,-4.29005 0.476643,-0.88504 1.021355,-1.49782 1.429907,-1.90645 1.87432,-2.95339 2.69415,-2.63453 1.83838,-5.31093 -1.22569,-2.45149 -6.468777,-1.22583 -6.809265,-1.08969 -5.175005,5.9241 -8.239152,9.46488 -9.805292,16.13789 -1.566125,6.67324 -3.404603,8.30735 -4.017431,8.44349 -0.612831,0.13633 -0.749018,0.6809 -0.680924,1.29377 0.06795,0.61279 0.612832,0.34045 1.702309,0.68088 1.089462,0.34045 1.361829,-0.74898 2.042763,1.97463 0.680921,2.72365 0.47665,2.65584 -0.06807,4.69858 -0.522679,1.45884 -1.489992,1.93887 0.07403,2.51366 z"
         style="fill:#282828;fill-opacity:1;stroke:#000000;stroke-width:0.7626338px;stroke-linecap:butt;stroke-linejoin:miter;stroke-opacity:1" />
      <path
         sodipodi:nodetypes="ccsccccc"
         inkscape:connector-curvature="0"
         id="path15291"
         d="m 97.472582,150.26777 c -3.322237,1.34825 -6.47596,2.55312 -6.596332,4.69547 -0.12046,2.1429 -0.505566,2.1429 0.09631,2.93703 0.601874,0.79467 4.092637,4.30955 5.224096,4.42968 1.131509,0.11955 4.357444,0.72234 5.176014,0.0109 0.8185,-0.69825 3.88565,-6.31347 3.81331,-7.32446 -0.0723,-1.01119 -0.48318,-2.93125 -2.072,-3.87016 -1.58892,-0.93884 -3.426506,-0.77039 -5.641389,-0.89074 z"
         style="fill:#ffffff;fill-opacity:1;stroke:#000000;stroke-width:0.7626338px;stroke-linecap:butt;stroke-linejoin:miter;stroke-opacity:1" />
      <path
         sodipodi:nodetypes="ccccccccccccccccccccccccc"
         inkscape:connector-curvature="0"
         id="path15293"
         d="m 97.930019,162.20982 c -0.337071,-2.02217 -0.288901,-2.38349 -1.275958,-3.25013 -0.987035,-0.86655 -2.262981,-1.68529 -3.370406,-2.09441 -1.107389,-0.40936 -2.070365,-1.17964 -3.129644,-1.80556 -1.059278,-0.62601 -1.44446,-1.17962 -1.059278,-2.28705 0.385199,-1.10753 0,-1.56472 1.155579,-1.87789 1.155548,-0.31298 1.540761,-0.74612 2.696319,-0.26548 1.155576,0.48156 2.166665,0.96297 2.816687,1.99793 0.64999,1.03541 1.179648,1.42077 1.853729,2.6724 0.674036,1.25199 0.770369,1.1316 0.938858,1.75723 0.16852,0.62612 0.698142,2.35932 0.6019,1.13187 -0.0963,-1.22781 0.33705,-2.11857 0.04837,-3.20224 -0.288876,-1.08304 -0.457389,-3.24999 -0.216645,-3.99606 0.240796,-0.74639 0.409228,-0.57781 0.79446,-1.56493 0.38518,-0.9868 1.66113,-1.75729 2.40743,-1.49262 0.8666,0.19337 1.08326,0.65014 1.42036,1.61306 0.3369,0.96312 0.43328,1.39635 0.79437,2.263 0.0722,0.86668 0.72215,1.37226 0.14469,2.02217 -0.57783,0.65012 0.0247,0.86655 -0.89075,1.7094 -0.91485,0.8426 -1.39634,2.26296 -1.4445,2.35929 -0.048,0.096 -0.24076,0.40923 -0.21662,1.22751 0.0247,0.81891 0.33704,1.05941 0.40925,1.66142 0.0729,0.60189 -0.96296,1.70922 -1.17963,1.73333 -0.2167,0.0109 -3.153675,0 -3.298135,-0.31307 z"
         style="fill:#282828;fill-opacity:1;stroke:#000000;stroke-width:0.76383543;stroke-linecap:butt;stroke-linejoin:miter;stroke-miterlimit:4;stroke-dasharray:none;stroke-opacity:1" />
      <path
         sodipodi:open="true"
         transform="matrix(-0.87123659,0.49086333,0.36636921,0.93046956,0,0)"
         d="m -32.407392,186.25853 a 0.78797054,0.48734269 0 0 1 -0.04782,0.68584 0.78797054,0.48734269 0 0 1 -1.109253,-0.0241 0.78797054,0.48734269 0 0 1 0.03026,-0.68622 0.78797054,0.48734269 0 0 1 1.109732,0.0133"
         sodipodi:end="5.5131795"
         sodipodi:start="5.5448397"
         sodipodi:ry="0.48734269"
         sodipodi:rx="0.78797054"
         sodipodi:cy="186.58655"
         sodipodi:cx="-32.990162"
         sodipodi:type="arc"
         id="path15313"
         style="fill:#ffffff;fill-opacity:1;stroke:#000000;stroke-width:0.14106908;stroke-miterlimit:4;stroke-dasharray:none;stroke-opacity:1" />
      <path
         inkscape:transform-center-y="2.3351461"
         inkscape:transform-center-x="-1.5874268"
         sodipodi:open="true"
         transform="matrix(-0.87123659,0.49086333,0.36636921,0.93046956,0,0)"
         d="m -36.030664,186.91147 a 0.78797054,0.48734269 0 0 1 0.009,0.68432 0.78797054,0.48734269 0 0 1 -1.106229,0.0152 0.78797054,0.48734269 0 0 1 -0.0401,-0.6839 0.78797054,0.48734269 0 0 1 1.105101,-0.0344"
         sodipodi:end="5.4404573"
         sodipodi:start="5.4966679"
         sodipodi:ry="0.48734269"
         sodipodi:rx="0.78797054"
         sodipodi:cy="187.25645"
         sodipodi:cx="-36.587219"
         sodipodi:type="arc"
         id="path15313-1"
         style="fill:#ffffff;fill-opacity:1;stroke:#000000;stroke-width:0.14106908;stroke-miterlimit:4;stroke-dasharray:none;stroke-opacity:1" />
      <path
         sodipodi:open="true"
         d="m 100.25686,160.45385 a 0.20135553,0.02908074 0 0 1 -0.0122,0.0409 0.20135553,0.02908074 0 0 1 -0.283455,-0.001 0.20135553,0.02908074 0 0 1 0.0077,-0.0409 0.20135553,0.02908074 0 0 1 0.283582,7.9e-4"
         sodipodi:end="5.5131809"
         sodipodi:start="5.5448412"
         sodipodi:ry="0.029080739"
         sodipodi:rx="0.20135553"
         sodipodi:cy="160.47342"
         sodipodi:cx="100.10794"
         sodipodi:type="arc"
         id="path19161"
         style="fill:#000000;fill-opacity:1;stroke:#ffffff;stroke-width:0.59830844;stroke-linejoin:round;stroke-miterlimit:4;stroke-dasharray:none;stroke-opacity:1;paint-order:normal" />
      <path
         sodipodi:nodetypes="ccccccccccc"
         inkscape:connector-curvature="0"
         id="path15289-3"
         d="m 91.996331,169.2476 c -5.700862,-1.67664 -7.624705,-1.31969 -7.570621,-1.22399 -1.970662,0.53655 -3.2743,2.78044 -4.669395,4.79021 0.253822,0.5433 -0.302413,2.04499 -0.302413,2.04499 0,0 -1.758435,0.81396 -2.394534,0.93338 -0.636029,0.11954 -1.016205,0.67447 -1.637978,0.039 -0.622189,-0.63529 -1.293896,-1.42293 -0.539721,-2.2092 0.753734,-0.787 1.820531,-1.30919 2.674711,-1.79206 0.854157,-0.48275 -0.44633,1.26597 1.180431,-0.97386 1.627676,-2.23924 -0.13461,-0.92518 2.732476,-4.52654 2.86739,-3.60122 10.991227,0.87293 11.25601,0.13912"
         style="fill:#282828;fill-opacity:1;stroke:#000000;stroke-width:0.84532982px;stroke-linecap:butt;stroke-linejoin:miter;stroke-opacity:1" />
    </g>
  </g>
</svg>
