<?xml version="1.0" encoding="UTF-8" standalone="no"?>
<!-- Created with Inkscape (http://www.inkscape.org/) -->

<svg
   xmlns:dc="http://purl.org/dc/elements/1.1/"
   xmlns:cc="http://creativecommons.org/ns#"
   xmlns:rdf="http://www.w3.org/1999/02/22-rdf-syntax-ns#"
   xmlns:svg="http://www.w3.org/2000/svg"
   xmlns="http://www.w3.org/2000/svg"
   xmlns:xlink="http://www.w3.org/1999/xlink"
   xmlns:sodipodi="http://sodipodi.sourceforge.net/DTD/sodipodi-0.dtd"
   xmlns:inkscape="http://www.inkscape.org/namespaces/inkscape"
   width="70mm"
   height="60mm"
   viewBox="0 0 70 60"
   version="1.1"
   id="svg8"
   inkscape:version="0.92.2 (5c3e80d, 2017-08-06)"
   sodipodi:docname="SSAGO logo.svg"
   inkscape:export-filename="C:\Users\Nathan\Desktop\SSAGO logo icon.png"
   inkscape:export-xdpi="30"
   inkscape:export-ydpi="30">
  <defs
     id="defs2" />
  <sodipodi:namedview
     id="base"
     pagecolor="#ffffff"
     bordercolor="#666666"
     borderopacity="1.0"
     inkscape:pageopacity="0.0"
     inkscape:pageshadow="2"
     inkscape:zoom="0.70710678"
     inkscape:cx="61.420968"
     inkscape:cy="-27.321986"
     inkscape:document-units="mm"
     inkscape:current-layer="layer1"
     showgrid="false"
     inkscape:window-width="1920"
     inkscape:window-height="1051"
     inkscape:window-x="1911"
     inkscape:window-y="-9"
     inkscape:window-maximized="1"
     inkscape:snap-grids="true"
     fit-margin-top="0"
     fit-margin-left="0"
     fit-margin-right="0"
     fit-margin-bottom="0" />
  <metadata
     id="metadata5">
    <rdf:RDF>
      <cc:Work
         rdf:about="">
        <dc:format>image/svg+xml</dc:format>
        <dc:type
           rdf:resource="http://purl.org/dc/dcmitype/StillImage" />
        <dc:title />
      </cc:Work>
    </rdf:RDF>
  </metadata>
  <g
     inkscape:label="Layer 1"
     inkscape:groupmode="layer"
     id="layer1"
     transform="translate(-68.753869,-132.64359)">
    <path
       style="fill:#ff0000;stroke-width:0.17857143"
       d=""
       id="path33139"
       inkscape:connector-curvature="0"
       transform="scale(0.26458333)" />
    <path
       style="fill:#ff0000;stroke-width:0.06313454"
       d=""
       id="path33295"
       inkscape:connector-curvature="0"
       transform="scale(0.26458333)" />
    <g
       id="g960"
       transform="translate(9.8815123,-8.8745709)">
      <path
         sodipodi:nodetypes="ccccscsccccscccccccccccccccccccccsccccccccccscsccccccccccccsccccscccccc"
         inkscape:connector-curvature="0"
         id="path15273"
         d="m 112.41241,175.37423 c 0.41341,-0.14174 2.11725,-0.23329 2.32986,-0.0325 0.1506,0.12993 0.0413,0.19193 0.19195,0.30412 0.0332,0.0533 0.19877,-0.002 0.31892,0.0561 0.0808,0.0212 0.0499,0.22798 0.1201,0.30709 0.0701,0.0791 0.28851,0.0512 0.31247,0.11688 0.068,0.0945 0.0282,0.26956 0.0906,0.3536 0.0816,0.1099 0.32753,0.0464 0.38068,0.18132 0.0714,0.15146 -0.0663,0.23524 -0.0153,0.40328 0.0589,0.25444 0.35784,0.24369 0.42953,0.29689 0.18998,0.31454 0.002,0.40155 0.075,0.61692 0.10733,0.24534 0.28215,0.3167 0.35664,0.41745 0.0573,0.0775 0.0168,0.37722 0.10901,0.51501 0.0429,0.0959 0.24689,0.32709 0.31776,0.51608 0.0709,0.18898 -0.0327,0.15271 0.0382,0.40076 0.0709,0.24805 0.18934,0.19473 0.26021,0.40733 0.0709,0.21262 -0.15095,0.38701 -0.15095,0.38701 -0.0118,0.0974 0.20079,0.14173 0.19489,0.21852 -0.003,0.12106 -0.23332,0.22737 -0.23033,0.31596 0.0135,0.0717 0.18741,0.14982 0.15949,0.21261 -0.0295,0.065 -0.11503,0.13594 -0.19773,0.30129 -0.0249,0.0955 -0.10499,0.0806 -0.36342,0.35584 -0.0984,0.16372 -0.14358,0.50594 -0.25081,0.68361 -0.11812,0.16537 -0.41351,0.29512 -0.51981,0.38962 -0.10631,0.0945 -0.0331,0.25412 -0.15116,0.3368 -0.11812,0.0827 -0.14412,-0.18325 -0.35673,-0.12419 -0.21261,0.0591 0.18899,0.38978 -0.0236,0.47247 -0.21261,0.0827 -0.33073,-0.44885 -0.55515,-0.2953 -0.22443,0.15356 0.0591,0.59059 -0.0827,0.64965 -0.14174,0.0591 -0.53153,-0.35435 -0.6024,-0.34254 -0.0709,0.0118 0.36616,0.68508 -0.0354,0.61421 -0.4016,-0.0709 -0.24805,-0.55515 -0.4961,-0.51972 -0.24804,0.0354 0.29529,-0.0236 0,0 -0.29529,0.0236 -0.45779,8.4e-4 -0.61134,8.4e-4 -0.15356,0 0.30711,-0.0236 0,0 -0.3071,0.0236 -0.55802,-0.10714 -0.69976,-0.11896 -0.14174,-0.0118 -0.12993,0.4961 -0.50791,0.38979 -0.37797,-0.1063 0.0236,-0.55515 -0.17717,-0.63783 -0.2008,-0.0827 -0.48428,0.4016 -0.67327,0.17717 -0.18899,-0.22442 0.3071,-0.41341 0.18899,-0.53153 -0.11812,-0.11811 -0.46066,0.18899 -0.6024,0 -0.14175,-0.18898 0.31891,-0.44884 0.21261,-0.56696 -0.10631,-0.11812 -0.50791,0.35435 -0.6969,0.0118 -0.18898,-0.34254 0.38979,-0.18899 0.22443,-0.43703 -0.16537,-0.24805 -0.35435,0.1063 -0.46066,-0.0945 -0.10631,-0.2008 0.29529,-0.17717 0.23623,-0.34254 -0.0591,-0.16536 -0.31891,0.0236 -0.41341,-0.0591 -0.0945,-0.0827 0.30711,-0.22442 0.2008,-0.38978 -0.1063,-0.16537 -0.37797,0.0709 -0.42522,-0.0591 -0.0472,-0.12993 0.33073,-0.15356 0.28348,-0.25986 -0.0472,-0.10631 -0.3071,0 -0.4016,-0.23624 -0.0945,-0.23623 0.34254,-0.25986 0.2953,-0.43703 -0.0473,-0.17718 -0.42523,0.17717 -0.43704,-0.10631 -0.0118,-0.28348 0.46066,-0.1063 0.43704,-0.46066 -0.0236,-0.35435 -0.44885,0.27167 -0.46066,-0.0472 -0.0118,-0.31892 0.47247,-0.27167 0.42522,-0.4961 -0.0472,-0.22442 -0.5079,0.34254 -0.48428,-0.0591 0.0236,-0.4016 0.57877,-0.29529 0.54334,-0.49609 -0.0354,-0.2008 -0.48428,-0.10631 -0.47247,-0.27167 0.0118,-0.16537 0.54334,-0.0709 0.54334,-0.25986 0,-0.18899 -0.74414,-0.14174 -0.6024,-0.31892 0.14174,-0.17717 0.53153,-0.0354 0.56696,-0.25985 0.0354,-0.22443 -0.46065,-0.0827 -0.38978,-0.30711 0.0709,-0.22442 0.62602,-0.0827 0.67327,-0.18899 0.0472,-0.10631 -0.31892,-0.36616 -0.17718,-0.48428 0.14174,-0.11812 0.53153,0.41341 0.67327,0.16536 0.14174,-0.24804 -0.14174,-0.46065 0.10631,-0.63783 0.24804,-0.17718 0.23623,0.55515 0.56696,0.33073 0.33073,-0.22443 0,-0.70871 0.2008,-0.82682 0.2008,-0.11812 0.66146,-0.2008 0.66146,-0.2008 z"
         style="fill:#ffffff;fill-opacity:1;stroke:#000000;stroke-width:0.26458332px;stroke-linecap:butt;stroke-linejoin:miter;stroke-opacity:1" />
      <path
         inkscape:connector-curvature="0"
         id="path15285"
         d="m 74.319562,176.26028 c -0.968557,-0.0709 -1.133922,0.23624 -1.133922,0.23624 0,0 -3.307292,3.75614 -3.449033,5.33891 -0.141741,1.58278 -0.118117,1.74814 -0.283482,1.84264 -0.165364,0.0945 -0.283482,0.25986 -0.354353,0.44885 -0.07087,0.18898 -0.212611,0.23623 -0.212611,0.61421 0,0.37797 0.496094,0.56696 0.496094,0.56696 v 0"
         style="fill:#ffffff;fill-opacity:1;stroke:#000000;stroke-width:0.26458332px;stroke-linecap:butt;stroke-linejoin:miter;stroke-opacity:1" />
      <path
         sodipodi:nodetypes="cscc"
         inkscape:connector-curvature="0"
         id="path15287"
         d="m 74.697545,185.61519 c 1.889881,-0.66145 2.622214,-3.09468 2.882068,-5.07905 0.259855,-1.98437 -0.8977,-3.89788 -0.8977,-3.89788 l -3.000186,0.75595"
         style="fill:#ffffff;fill-opacity:1;stroke:#000000;stroke-width:0.26458332px;stroke-linecap:butt;stroke-linejoin:miter;stroke-opacity:1" />
      <path
         sodipodi:nodetypes="cscccssccscsccccccsccccscccscsssscsccsscccccscc"
         inkscape:connector-curvature="0"
         id="path15283"
         d="m 70.589102,188.66067 c 0.356112,0.0317 0.919269,0.21457 1.344492,0.42718 0.425223,0.21261 0.377976,-0.0472 0.377976,-0.0472 l 0.07087,-0.11812 c 0,0 0.04725,0.1181 0,0 -0.04725,-0.11811 0.141082,-0.15898 0.141082,-0.15898 -0.03318,-0.0885 0.189644,0.0409 0.189644,-0.0773 0,-0.11812 0.212611,-0.0236 0.165364,-0.11812 -0.04725,-0.0945 0.377977,-0.0472 -0.07087,-0.21261 -0.448847,-0.16536 -0.779576,0.0236 -0.779576,-0.3071 0,-0.33073 0.04725,-1.2993 0.803199,-1.48828 0.755953,-0.18899 1.960752,-0.68509 1.960752,-0.11812 0,0.56696 -0.118118,0.87407 0,1.15755 0.118117,0.28348 0.401599,0.51972 0.614211,0.54334 0.212612,0.0236 0.307106,0.11812 0.448847,0.14174 0.141741,0.0236 0.307106,0.23624 0.496093,0 0.188989,-0.23623 0.307106,-0.18898 0.4016,-0.23623 0.09449,-0.0472 0.354353,-0.0236 0.283482,-0.21262 -0.07087,-0.18898 -0.118117,-0.33072 -0.354352,-0.33072 -0.236235,0 -0.09449,0.0472 -0.377976,-0.23624 -0.283483,-0.28348 -0.236236,-0.7087 -0.236236,-0.7087 0,0 0.377977,-0.92132 0.141741,-1.34654 -0.236235,-0.42523 -1.039434,-0.11812 -1.181175,-0.61422 -0.141741,-0.49609 -0.377976,-1.81901 -0.377976,-2.22061 0,-0.40159 0.165364,-1.44103 0.212611,-1.74814 0.04725,-0.3071 0.519718,-1.18117 0.685082,-1.48828 0.165365,-0.3071 0.354353,-0.51971 0.496094,-0.66146 0.141741,-0.14174 -0.02362,-0.21261 0.448847,-0.21261 0.47247,0 0.590588,0.0472 0.779575,0.18899 0.188989,0.14174 0.566965,0.0945 0.566965,0.0945 0.819699,-0.34154 1.086681,-0.28349 1.34654,-0.56697 0.259859,-0.28348 0.496094,0.0236 0.496094,-0.25986 0,-0.28348 -0.04725,-1.08668 -0.04725,-1.22842 0,-0.14174 -0.212612,-0.28348 -0.283483,-0.11812 -0.07087,0.16537 -0.07087,0.25986 -0.212611,0.35436 -0.141741,0.0945 -0.87407,0.3071 -1.133929,0.28348 -0.259858,-0.0236 -0.283482,0.14174 -0.566964,0.16536 -0.283482,0.0236 -0.4345,-0.0173 -0.496094,-0.11812 -0.259858,-0.42522 -0.259858,-0.42522 -0.259858,-0.42522 -0.42524,-0.85044 -2.244234,-0.42522 -2.362351,-0.37798 -1.795387,2.0553 -2.858446,3.28367 -3.401786,5.59878 -0.543341,2.3151 -1.181176,2.88207 -1.393787,2.92931 -0.212612,0.0472 -0.259859,0.23624 -0.236235,0.44885 0.02362,0.21261 0.212611,0.11812 0.590587,0.23623 0.377977,0.11812 0.472471,-0.25985 0.708706,0.68509 0.236235,0.94494 0.165364,0.92131 -0.02363,1.63002 -0.181338,0.50618 -0.516928,0.67267 0.02569,0.87207 z"
         style="fill:#282828;fill-opacity:1;stroke:#000000;stroke-width:0.26458332px;stroke-linecap:butt;stroke-linejoin:miter;stroke-opacity:1" />
      <path
         sodipodi:nodetypes="ccccccsc"
         inkscape:connector-curvature="0"
         id="path32962-6"
         d="m 101.51311,159.31047 c 0,0 2.87314,-1.67044 4.00904,-4.81086 1.73725,-3.07359 1.80407,-2.87314 3.0736,-3.87541 2.00452,-1.00225 5.10105,5.80739 5.67948,7.58378 0.56794,1.70384 0.36749,6.81538 -0.83522,8.41899 -1.20272,1.60362 -2.03793,2.83974 -2.03793,2.83974 0,0 -1.37666,1.0474 -1.83748,0.7684 l -12.427811,-7.52432"
         style="fill:#ff0000;fill-opacity:1;stroke:#000000;stroke-width:0.26458332px;stroke-linecap:butt;stroke-linejoin:miter;stroke-opacity:1" />
      <g
         transform="translate(-0.11693)"
         id="g34222">
        <path
           style="fill:#ff0000;fill-opacity:1;stroke:#000000;stroke-width:0.26458332px;stroke-linecap:butt;stroke-linejoin:miter;stroke-opacity:1"
           d="m 100.52675,155.81487 c -0.16704,-2.6727 -1.685396,-4.572 -2.338608,-4.84426 -2.470447,-1.0297 -2.271792,1.26953 -1.236123,1.73725 0.258917,0.11693 1.096117,0.0963 1.197752,-0.1445 0.101634,-0.24079 -1.083541,-1.00242 -0.960557,-1.03115 0.122989,-0.0287 0.822842,0.3195 1.04093,0.9756 0.218088,0.65609 0.25509,1.56994 0.25509,1.56994"
           id="path33079"
           inkscape:connector-curvature="0"
           sodipodi:nodetypes="cscsssc" />
      </g>
      <path
         transform="scale(0.26458333)"
         inkscape:connector-curvature="0"
         id="path33281"
         d="m 393.10069,662.89203 c -0.12867,-0.47787 -0.18684,-1.18296 -0.18877,-2.28843 l -0.002,-1.11555 0.23676,0.0654 c 0.40529,0.11193 1.02707,0.0306 1.42846,-0.18677 0.22722,-0.12307 0.35509,-0.16354 0.35509,-0.11241 0,0.17887 -0.52421,1.91847 -0.72233,2.3971 -0.33361,0.8059 -0.77085,1.48832 -0.95361,1.48832 -0.0478,0 -0.11697,-0.11144 -0.15365,-0.24765 z"
         style="fill:#ffffff;stroke-width:0.06313454" />
      <ellipse
         transform="matrix(1,0,0.0101355,0.99994863,0,0)"
         ry="14.476296"
         rx="13.743194"
         cy="177.11975"
         cx="91.281448"
         id="path33230"
         style="fill:#008c42;fill-opacity:1;stroke:#000000;stroke-width:0.26373291;stroke-opacity:1" />
      <path
         sodipodi:nodetypes="ccccccccccsc"
         inkscape:connector-curvature="0"
         id="path15289"
         d="m 74.952051,178.55176 c 0.945082,1.58278 3.844216,1.54462 3.844216,1.54462 l 1.305242,-0.08 c 0.08707,-0.18898 0.609516,-0.37797 0.609516,-0.37797 0,0 0.609514,0.28348 0.783663,0.42522 0.174147,0.14174 0.406343,0.11812 0.377318,0.42522 -0.02902,0.30711 -0.08707,0.66146 -0.464393,0.63784 -0.377319,-0.0236 -0.754637,-0.18899 -1.073907,-0.30711 -0.319271,-0.11811 0.435368,-0.16536 -0.522442,-0.0945 -0.95781,0.0709 -1.073908,0.37798 -2.670257,0.42522 -1.596349,0.0472 -1.944643,-0.0236 -2.205865,-0.0945 l -0.261221,-0.0709"
         style="fill:#282828;fill-opacity:1;stroke:#000000;stroke-width:0.29327354px;stroke-linecap:butt;stroke-linejoin:miter;stroke-opacity:1" />
      <ellipse
         transform="matrix(0.99983808,0.01799493,0,1,0,0)"
         ry="11.880422"
         rx="10.890054"
         cy="175.62236"
         cx="93.209862"
         id="path33238"
         style="fill:#ffffff;stroke:#000000;stroke-width:0.31531855;stroke-miterlimit:4;stroke-dasharray:none;stroke-opacity:1" />
      <path
         inkscape:connector-curvature="0"
         id="path16142"
         d="m 95.86114,183.28446 c 0.389299,-0.51001 0.601417,-0.8801 0.713942,-1.24561 0.0575,-0.18686 -0.02607,-0.26299 -0.597475,-0.54431 -1.320014,-0.64983 -2.266009,-1.92759 -2.591626,-3.50049 -0.137881,-0.66605 -0.137881,-0.83213 0,-1.49818 0.437296,-2.11238 1.836772,-3.51185 3.949154,-3.94915 0.66604,-0.13788 0.832121,-0.13788 1.498169,0 2.112376,0.4373 3.511856,1.83677 3.949156,3.94915 0.13788,0.66605 0.13788,0.83213 0,1.49818 -0.4376,2.11384 -1.91056,3.57365 -3.944845,3.9096 -0.686993,0.11345 -0.772624,0.15859 -1.358384,0.71598 -0.57709,0.54914 -1.157212,0.90758 -1.751712,1.08232 -0.217748,0.064 -0.206081,0.0275 0.133621,-0.41749 z m 1.791201,-2.93035 c 0.216717,-0.11056 0.454738,-0.27417 0.528933,-0.36356 0.186137,-0.22428 0.263803,-0.2048 0.403206,0.10114 0.160146,0.3515 0.731999,0.58309 1.239418,0.50194 0.218392,-0.0349 0.625342,-0.1866 0.904362,-0.33706 l 0.50729,-0.27357 0.0314,-0.60728 c 0.0285,-0.55126 0.0142,-0.60009 -0.15499,-0.52916 -0.1025,0.0429 -0.28816,0.10028 -0.41259,0.12736 -0.22589,0.0492 -0.22629,0.0461 -0.25831,-1.96918 -0.0365,-2.29386 -0.0621,-2.37356 -0.919466,-2.85945 -0.402613,-0.22817 -0.576986,-0.25831 -1.494379,-0.25831 -0.992659,0 -1.073388,0.0172 -1.825868,0.3891 l -0.787282,0.3891 -0.03391,0.77352 c -0.01863,0.42543 -0.0056,0.77341 0.02959,0.77328 0.03495,-1.4e-4 0.174445,-0.0868 0.309969,-0.19269 0.657588,-0.51357 1.658988,-0.83321 2.191576,-0.69953 0.263387,0.0661 0.527294,0.54154 0.466229,0.83992 -0.02207,0.10786 -0.36083,0.29334 -0.918104,0.50269 -1.590846,0.59763 -2.257087,1.11705 -2.476118,1.93048 -0.149771,0.55621 0.01084,1.10377 0.448072,1.52755 0.19111,0.18523 0.482607,0.37959 0.647759,0.43191 0.411067,0.13022 1.099491,0.0435 1.573229,-0.1982 z m -0.578354,-1.30687 c -0.312216,-0.21868 -0.310737,-0.7622 0.0032,-1.04893 0.246953,-0.22581 0.701627,-0.47401 1.08488,-0.59224 0.225953,-0.0697 0.232479,-0.0512 0.232479,0.66002 0,0.71467 -0.008,0.73652 -0.3358,0.93648 -0.404844,0.24684 -0.67806,0.25924 -0.984406,0.0447 z"
         style="fill:#c8242b;fill-opacity:1;stroke-width:0.10332234" />
      <path
         sodipodi:nodetypes="ccc"
         inkscape:connector-curvature="0"
         id="path33240"
         d="m 101.82642,174.62524 c 0,0 -0.15083,1.28063 0.27439,0.99715 0.42523,-0.28348 0.70871,-1.55915 0.70871,-1.55915"
         style="fill:#ffffff;fill-opacity:1;stroke:#000000;stroke-width:0.26458332px;stroke-linecap:butt;stroke-linejoin:miter;stroke-opacity:1" />
      <path
         sodipodi:nodetypes="ccc"
         inkscape:connector-curvature="0"
         id="path33240-8"
         d="m 103.84446,174.24717 c 0,0 -0.15083,1.61472 0.27439,1.33124 0.42523,-0.28348 0.60848,-1.67608 0.60848,-1.67608"
         style="fill:#ffffff;fill-opacity:1;stroke:#000000;stroke-width:0.26458332px;stroke-linecap:butt;stroke-linejoin:miter;stroke-opacity:1" />
      <path
         sodipodi:nodetypes="ccc"
         inkscape:connector-curvature="0"
         id="path33240-1"
         d="m 105.75921,174.30292 c 0,0 -0.15083,1.61472 0.27439,1.33124 0.42523,-0.28348 0.70871,-1.55915 0.70871,-1.55915"
         style="fill:#ffffff;fill-opacity:1;stroke:#000000;stroke-width:0.26458332px;stroke-linecap:butt;stroke-linejoin:miter;stroke-opacity:1" />
      <path
         sodipodi:nodetypes="cscscccsc"
         inkscape:connector-curvature="0"
         id="path32970-5"
         d="m 99.95744,162.30594 c 0,0 7.59068,3.6162 7.05172,10.86678 -0.10326,1.38912 -0.86575,1.1469 -0.86575,1.1469 0,0 -0.59235,0.0918 -0.82017,-0.55051 -0.22784,-0.64227 -0.18227,-0.87164 -0.18227,-0.87164 0,0 -0.85045,3.35454 -2.07887,0 0.0473,0.18899 -0.42522,3.87425 -2.31511,0.0473 0,0 -0.18898,-1.74814 -1.181171,-3.3073 -2.19293,-3.44603 -3.930431,-4.68173 -4.639137,-5.34319"
         style="fill:#ff0000;fill-opacity:1;stroke:#000000;stroke-width:0.25603455px;stroke-linecap:butt;stroke-linejoin:miter;stroke-opacity:1" />
      <path
         sodipodi:nodetypes="ccccccsc"
         inkscape:connector-curvature="0"
         id="path32962"
         d="m 85.392613,160.22482 c 0,0 -2.873147,-1.67044 -4.009043,-4.81086 -1.737252,-3.07359 -1.804069,-2.87314 -3.0736,-3.87541 -2.004521,-1.00225 -5.268093,5.54012 -5.813111,7.48355 -0.467724,1.77066 -0.334087,7.08265 0.868624,8.68626 1.202714,1.60362 2.138157,2.6727 2.138157,2.6727 0,0 1.157869,0.83705 1.603617,0.53454 l 10.796318,-7.32694"
         style="fill:#ff0000;fill-opacity:1;stroke:#000000;stroke-width:0.26458332px;stroke-linecap:butt;stroke-linejoin:miter;stroke-opacity:1" />
      <path
         sodipodi:nodetypes="ccc"
         inkscape:connector-curvature="0"
         id="path32964"
         d="m 74.555801,161.21205 c 0,0 -0.802863,-2.31539 2.787576,-7.08705 l 4.368379,5.02032"
         style="fill:none;stroke:#000000;stroke-width:0.26458332px;stroke-linecap:butt;stroke-linejoin:miter;stroke-opacity:1" />
      <path
         inkscape:connector-curvature="0"
         id="path32966"
         d="m 77.343375,154.125 c 0.0945,4.29948 0.04725,4.34673 0.04725,4.34673"
         style="fill:none;stroke:#000000;stroke-width:0.26458332px;stroke-linecap:butt;stroke-linejoin:miter;stroke-opacity:1" />
      <polygon
         style="clip-rule:evenodd;fill:#008c42;fill-rule:evenodd"
         transform="matrix(0.0633306,0,0,0.0633306,79.613248,168.64062)"
         id="polygon15434"
         points="109,155 107.6,153.6 106,152.3 104,151.5 101.8,151.2 100,150.9 97.7,151.2 95.5,151.5 94.7,151.7 93.3,152.6 90.2,155 87.8,157.5 86.6,158.9 86.5,159.8 85.9,162.2 85.9,164.6 85.9,166.8 85.9,169.4 85,171.2 84.2,172.1 83.6,172.4 83,172.7 81.5,172.7 79.6,172.1 77.3,170.9 75.4,170 73.1,168.2 71,166.4 66.5,162.2 62.4,157.5 58.9,153 56.1,148.7 54.2,145.4 53.1,142.5 52.2,139.6 51.5,136.2 50.9,132.9 50.3,129.4 50.3,125.8 50.3,122.2 50.6,118.9 51.2,115.3 52.2,112.3 53.6,109.3 55.3,106.5 57.5,104.4 60.2,102.1 63.2,100.8 67.1,99.7 75.1,100 78.1,100.2 81.2,101.1 84.2,101.8 87.2,103.3 95.5,106.9 101,110.4 103.7,112.3 106.8,113.7 107.6,113.7 108.4,113.7 109,113.1 109.3,112.3 109.3,111.3 109.3,109.9 108.7,106.5 107.6,102.7 106.3,98.5 104.3,94.2 102.1,89.5 100.7,87.1 100,84.2 99.4,81.5 98.8,78.4 98.5,75.4 98.8,72.7 99.1,70 99.7,67.4 100.7,64.7 102.1,62 105.1,56.6 108.7,51.8 112.6,47.6 116.8,43.7 120.9,40.4 124.4,38 127.8,36 130.2,37.1 133.5,39.3 137.4,42.4 141.6,46 145.6,50.6 149.4,55.6 153,61.1 154.8,63.8 156,66.8 156.6,69.4 156.9,72.1 157.2,75.1 156.9,78.2 156.6,81.2 156,84.2 155.3,87.1 153.9,89.5 151.7,94.2 149.7,98.5 148.5,102.7 147.3,106.5 146.7,109.9 146.7,111.3 146.7,112.3 147.3,113.1 147.6,113.7 148.5,113.7 149.1,113.7 152.2,112.3 155,110.4 160.5,106.9 168.8,103.3 171.8,101.8 174.8,101.1 177.8,100.2 180.9,100 184.5,99.7 188.9,99.7 192.8,100.8 195.8,102.1 198.5,104.4 200.7,106.5 202.4,109.3 203.7,112.3 204.8,115.3 205.4,118.9 205.7,122.2 205.7,125.8 205.7,129.4 205.1,132.9 204.5,136.2 203.7,139.6 201.8,145.4 199.9,148.7 197.1,153 193.5,157.5 189.5,162.2 185,166.4 180.6,170 178.4,170.9 176.4,172.1 174.6,172.7 172.8,172.7 172.4,172.4 171.8,172.1 171,171.2 170.1,169.4 170.1,164.6 170.1,162.2 169.5,159.8 169.2,158.9 168.2,157.5 165.7,155 162.6,152.6 161.4,151.7 160.2,151.5 158.3,151.2 156,150.9 153.9,151.2 151.9,151.5 150,152.3 148.5,153.6 147,155 146.2,156.9 145.6,158.9 145.6,160.8 145.9,162.8 146.4,164.3 147,165.8 148.9,168.5 151.2,170.9 155.7,175.7 157.8,178.1 158.6,179.9 159.3,181.4 159.1,183.2 158.1,185.6 156.6,188.3 155,191 150.6,197.5 145.3,204.1 140.1,210.4 134.8,215.3 132.7,217.3 130.8,218.6 129.1,219.7 127.9,220 126.9,219.7 125.2,218.6 123.3,217.3 121,215.3 115.9,210.4 110.6,204.1 105.4,197.5 101,191 99.4,188.3 97.9,185.6 96.8,183.2 96.7,181.4 97.4,179.9 98.2,178.1 100.2,175.7 104.8,170.9 107.1,168.5 108.7,165.8 109.5,164.3 110.1,162.8 110.4,160.8 110.4,158.9 109.9,156.9 "
         class="st0" />
      <path
         sodipodi:nodetypes="ccc"
         inkscape:connector-curvature="0"
         id="path33240-0"
         d="m 82.645447,174.63696 c 0,0 0.15083,1.61472 -0.27439,1.33124 -0.561587,-0.6471 -0.7502,-1.66979 -0.70871,-1.55915"
         style="fill:#ffffff;fill-opacity:1;stroke:#000000;stroke-width:0.26458332px;stroke-linecap:butt;stroke-linejoin:miter;stroke-opacity:1" />
      <polygon
         style="clip-rule:evenodd;fill:#eeba00;fill-rule:evenodd"
         transform="matrix(0.0633306,0,0,0.0633306,79.613248,168.64062)"
         id="polygon15436"
         points="151.7,181.4 151.4,180.1 151.2,179.6 150.3,179 149.4,179 148.6,179.3 147.9,179.6 146.2,180.5 146.7,182.3 147.3,183.9 147.6,186.7 145.3,190.6 142,194.6 138.7,198.5 136.8,200.2 135.1,201.2 131.1,201.2 126.9,201.2 123.9,198.8 123.9,197.2 126.4,194.3 128.2,191.3 129.6,188.9 131.1,186.2 132.4,182.6 133.5,178.4 134.4,174 134.7,169.4 134.8,164.3 134.7,160.5 134.1,157.5 133.2,155 132.4,152.9 131.8,151.2 131.8,150.3 131.5,149.5 132.1,147.9 132.4,147 132.9,146.1 134.1,145.4 134.8,144.9 135.4,144 138.1,143.1 140.7,142.5 142.6,142.4 144.6,142.4 148.5,142.5 152.8,143.1 155.3,143.4 157.5,144.3 162.6,146.1 167.6,148.7 172.5,151.2 174.8,152 177.3,152.9 179.4,153.3 181.4,153.3 183.3,152.9 184.2,152.6 185,152 186.3,150.6 187.7,148.4 188.3,147 188.6,145.7 188.6,143.1 188.3,140.7 187.4,138.3 185.3,134.4 184.7,132.4 184.5,131.9 184.5,131.1 185,128.8 186.2,126.1 188.6,120.3 189.2,117.6 189.2,114.9 188.9,113.5 188,112.3 187.2,111.3 185.6,110.1 183.9,109.6 182.3,109 178.4,108.7 174.6,109.3 170.1,110.4 165.7,112.3 161.6,114.6 157.2,117 153.3,120 150.9,121.2 148.2,122.2 145.3,122.8 142.9,123.1 141.7,122.8 140.7,122.5 139.8,121.9 139,121.2 138.1,120 137.7,118.9 137.4,117.3 137.1,115.6 137.4,111.7 138.4,108 140.1,103.5 142,98.8 144.6,94.6 146.7,90.3 151.2,83.5 151.7,81.2 151.4,79 150.6,76.9 149.1,75.1 147.6,73.6 145.6,72.4 143.1,71.9 141,71.9 139.3,72.1 138,72.7 134.7,74.6 131.5,76.3 129.9,76.9 127.9,77.3 124.2,75.1 120.3,73.3 118.3,72.4 116.5,72.1 114.2,71.9 112.3,71.9 111.4,72.1 110.4,73 109.5,74 108.4,75.4 107.6,76.9 107.1,78.2 106.6,80.5 106.8,82.6 107.6,84.8 108.4,87.1 109.5,89.2 112.3,93.7 115,97.8 117.5,102.1 118.6,104.4 119.2,106.5 119.8,108.7 119.8,111.3 119.5,113.5 118.3,115.9 117.3,118.2 115.9,119.8 114.5,121.2 112.9,122.2 111.1,122.8 109.5,123.1 107.6,122.8 105.7,122.2 100.7,119.8 96.4,117 91.9,114.6 87.8,112 83.6,110.1 79.7,109.3 77.8,109 76,109.3 73.7,109.9 71.9,111 69.8,112.6 68.8,114.3 68,115.6 67.4,117.3 67.4,118.9 67.7,120.3 68.5,123.1 70.1,125.5 71.5,128.1 72.4,129.9 72.7,131.1 72.4,131.9 72.1,133.5 71,135.7 69.8,138.8 68.8,142.1 68.5,143.7 68.3,145.4 68.5,147 68.8,148.4 69.6,149.7 70.7,150.9 72.4,152 74.6,152.9 75.4,152.9 76.5,152.9 78.5,152.3 80.3,151.5 82.3,150.3 85,149 87.8,147.6 90.5,146.1 93.5,145.2 96.8,144 100.7,143.4 105.4,143.4 111.1,144.3 113.7,144.9 116.5,146 118.9,147 121.6,148.7 123.9,150.6 125.8,152.3 127.5,154.2 128.5,156.3 129.4,158.3 129.9,160.8 130.2,165.2 130.2,169.7 129.9,174.3 129.9,176 129.9,178.1 129.4,180.5 128.8,183.2 127.8,185.6 126.6,188 125.2,190 123.6,191.3 122.2,191.3 120.6,190.6 120.6,189.8 120,189.2 119.5,188.6 119.2,188 118.6,185.6 118.3,182.9 117,182 116.5,181.7 114.2,183.2 113.1,183.7 112.3,183.9 111.7,183.9 110.9,183.5 110.1,182.6 109.3,180.9 109,179.3 108.7,178.7 107.9,177.8 106.8,178.7 106.3,179.9 105.4,181.7 105.7,183.7 106.8,185.6 107.1,187.3 110.9,191.6 114.5,195.8 117.7,199.7 121.3,203.2 121.6,203.8 122.2,204.5 123.6,205.4 126.1,205.4 128.5,205.4 130.8,205.4 131.8,206 132.9,206.5 135.1,206.5 136.2,206.5 137.1,206.2 137.7,205.7 138,204.8 138.1,204.1 138.4,203.8 139.5,203.2 139.8,202.4 140.4,201.5 141,201.1 142,200.2 143.1,198.8 144,197.2 145,196.1 146.2,195.5 146.7,194.6 147.9,193.1 149.7,190 151.4,187 151.9,185.6 152.2,183.9 152.2,182.6 "
         class="st1" />
      <path
         sodipodi:nodetypes="ccc"
         inkscape:connector-curvature="0"
         id="path33240-7"
         d="m 84.559368,174.98635 c 0,0 0.15083,1.61472 -0.27439,1.33124 -0.42523,-0.28348 -0.708709,-1.55915 -0.708709,-1.55915"
         style="fill:#ffffff;fill-opacity:1;stroke:#000000;stroke-width:0.26458332px;stroke-linecap:butt;stroke-linejoin:miter;stroke-opacity:1" />
      <path
         sodipodi:nodetypes="ccc"
         inkscape:connector-curvature="0"
         id="path33240-3"
         d="m 80.537047,174.81414 c 0,0 0.15083,1.61472 -0.27439,1.33124 -0.42523,-0.28348 -0.626028,-1.59459 -0.626028,-1.59459"
         style="fill:#ffffff;fill-opacity:1;stroke:#000000;stroke-width:0.26458332px;stroke-linecap:butt;stroke-linejoin:miter;stroke-opacity:1" />
      <path
         sodipodi:nodetypes="ccccccsc"
         inkscape:connector-curvature="0"
         id="path32970"
         d="m 86.604272,162.44649 c 0,0 -7.870814,3.72427 -7.311954,11.19153 0.288516,1.48888 1.209292,1.73199 1.748139,0.61421 0.236236,-0.66146 0.188987,-0.89769 0.188987,-0.89769 0,0 0.850447,3.35454 2.078871,0 -0.04725,0.18899 0.425223,3.87425 2.315104,0.0473 0,0 0.188988,-1.74814 1.181176,-3.3073 2.19293,-3.44603 4.535713,-4.51209 5.244419,-5.17355"
         style="fill:#ff0000;fill-opacity:1;stroke:#000000;stroke-width:0.26458332px;stroke-linecap:butt;stroke-linejoin:miter;stroke-opacity:1" />
      <path
         sodipodi:nodetypes="cscscccc"
         inkscape:connector-curvature="0"
         id="path32976"
         d="m 91.045013,164.04687 c -1.535529,-0.11811 -2.869972,-0.1619 -4.516506,-1.55026 -0.888842,-0.74947 -1.135896,-2.27179 -1.135896,-2.27179 0,0 -0.489711,-2.46181 0.833207,-3.92646 1.525383,-1.68881 7.323288,-5.00818 12.142486,-2.22061 4.252236,2.92932 3.023806,5.19717 2.787576,6.09487 -0.23624,0.89769 -2.126118,3.96875 -3.260048,4.01599 -1.133927,0.0472 -1.559151,0.0236 -1.559151,0.0236"
         style="fill:#ff0000;fill-opacity:1;stroke:#000000;stroke-width:0.26458332px;stroke-linecap:butt;stroke-linejoin:miter;stroke-opacity:1" />
      <path
         sodipodi:nodetypes="ccc"
         inkscape:connector-curvature="0"
         id="path32982"
         d="m 90.879649,168.51171 c 1.086681,1.13393 2.102781,1.53554 3.850922,1.70087 1.744085,-0.43023 1.294256,-2.07175 1.294256,-2.07175"
         style="fill:#ff0000;fill-opacity:1;stroke:#000000;stroke-width:0.26458332px;stroke-linecap:butt;stroke-linejoin:miter;stroke-opacity:1" />
      <path
         sodipodi:nodetypes="cccc"
         inkscape:connector-curvature="0"
         id="path32988"
         d="m 97.543167,166.88644 c 0,0 0.466043,1.70327 0.442413,2.19936 0.04725,0.47247 0.07087,1.2048 -0.850448,0.51972 -0.921316,-0.68508 -1.110305,-1.46469 -1.110305,-1.46469"
         style="fill:#ffffff;fill-opacity:1;stroke:#000000;stroke-width:0.26458332px;stroke-linecap:butt;stroke-linejoin:miter;stroke-opacity:1" />
      <path
         sodipodi:nodetypes="ccssscc"
         inkscape:connector-curvature="0"
         id="path32978"
         d="m 91.281249,160.50335 -0.236236,3.54352 c 0,0 -1.790585,1.57548 -1.55915,2.59864 0.448846,1.98432 1.940694,2.41972 4.393973,2.28738 1.677262,-0.0905 2.663542,-0.88513 3.590774,-1.98033 0.661934,-0.78185 -1.133929,-2.74032 -1.133929,-2.74032 0.02362,-1.25205 -0.448846,-3.5199 -0.448846,-3.5199"
         style="fill:#ff0000;fill-opacity:1;stroke:#000000;stroke-width:0.26458332px;stroke-linecap:butt;stroke-linejoin:miter;stroke-opacity:1" />
      <path
         inkscape:connector-curvature="0"
         id="path32984"
         d="m 90.241815,168.03925 c 0,0 -0.708705,0.85044 -0.637834,1.88988 0.07087,1.03943 0.307105,1.48828 0.944938,0.59058 0.637837,-0.89769 0.897694,-1.32291 0.897694,-1.32291"
         style="fill:none;stroke:#000000;stroke-width:0.26458332px;stroke-linecap:butt;stroke-linejoin:miter;stroke-opacity:1" />
      <path
         inkscape:connector-curvature="0"
         id="path32990"
         d="m 92.556919,162.84207 c 0.307104,-0.28348 1.889882,-0.18898 2.362351,0.11812"
         style="fill:none;stroke:#000000;stroke-width:0.26458332px;stroke-linecap:butt;stroke-linejoin:miter;stroke-opacity:1" />
      <path
         inkscape:connector-curvature="0"
         id="path32990-3"
         d="m 92.612984,161.79178 c 0.307104,-0.28348 1.889882,-0.18898 2.362351,0.11812"
         style="fill:none;stroke:#000000;stroke-width:0.26458332px;stroke-linecap:butt;stroke-linejoin:miter;stroke-opacity:1" />
      <path
         inkscape:connector-curvature="0"
         id="path32990-3-1"
         d="m 90.510491,155.79141 c 0.307104,-0.28348 1.889882,-0.18898 2.362351,0.11812"
         style="fill:none;stroke:#000000;stroke-width:0.26458332px;stroke-linecap:butt;stroke-linejoin:miter;stroke-opacity:1" />
      <path
         inkscape:connector-curvature="0"
         id="path32990-3-2"
         d="m 94.66823,155.76779 c 0.307104,-0.28348 1.889884,-0.18898 2.362354,0.11812"
         style="fill:none;stroke:#000000;stroke-width:0.26458332px;stroke-linecap:butt;stroke-linejoin:miter;stroke-opacity:1" />
      <path
         sodipodi:nodetypes="ccc"
         inkscape:connector-curvature="0"
         id="path33073"
         d="m 89.401657,155.41396 c -1.035669,-2.30519 -1.202714,-2.43883 -3.842001,-2.90655 -3.00678,0.0668 2.572469,2.80633 2.572469,2.80633"
         style="fill:#ff0000;fill-opacity:1;stroke:#000000;stroke-width:0.26458332px;stroke-linecap:butt;stroke-linejoin:miter;stroke-opacity:1" />
      <path
         sodipodi:nodetypes="csc"
         inkscape:connector-curvature="0"
         id="path33075"
         d="m 88.132125,155.31374 c -0.868627,-0.43432 -3.044367,-1.73725 -3.044367,-1.73725 -0.27172,0.90925 0.889508,3.25735 1.373935,3.4411"
         style="fill:#ff0000;fill-opacity:1;stroke:#000000;stroke-width:0.26458332px;stroke-linecap:butt;stroke-linejoin:miter;stroke-opacity:1" />
      <path
         sodipodi:nodetypes="cc"
         inkscape:connector-curvature="0"
         id="path33077"
         d="m 87.630996,156.01532 c -1.577747,-0.71012 -1.911278,-1.07365 -2.388721,-1.48668"
         style="fill:none;stroke:#000000;stroke-width:0.26458332px;stroke-linecap:butt;stroke-linejoin:miter;stroke-opacity:1" />
      <path
         sodipodi:nodetypes="ccc"
         inkscape:connector-curvature="0"
         id="path32964-0"
         d="m 112.24891,160.34297 c 0,0 0.80286,-2.31539 -2.78757,-7.08705 l -4.36838,5.02032"
         style="fill:none;stroke:#000000;stroke-width:0.26458332px;stroke-linecap:butt;stroke-linejoin:miter;stroke-opacity:1" />
      <path
         inkscape:connector-curvature="0"
         id="path32966-9"
         d="m 109.46134,153.25592 c 0.0945,4.29948 0.0472,4.34673 0.0472,4.34673"
         style="fill:none;stroke:#000000;stroke-width:0.26458332px;stroke-linecap:butt;stroke-linejoin:miter;stroke-opacity:1" />
      <path
         sodipodi:nodetypes="csc"
         inkscape:connector-curvature="0"
         id="path33113"
         d="m 95.887835,160.69234 c 1.582778,-2.97657 0.282326,-4.24965 -0.779574,-4.25223 -2.214416,-0.005 -1.700892,3.96874 -1.700892,3.96874"
         style="fill:#ffffff;fill-opacity:1;stroke:#000000;stroke-width:0.26458332px;stroke-linecap:butt;stroke-linejoin:miter;stroke-opacity:1" />
      <path
         sodipodi:nodetypes="csc"
         inkscape:connector-curvature="0"
         id="path33115"
         d="m 91.281249,160.50335 c -1.700893,-1.37017 -0.807953,-4.4128 0.94494,-4.34673 1.555517,0.0586 1.18118,4.25223 1.18118,4.25223"
         style="fill:#ffffff;fill-opacity:1;stroke:#000000;stroke-width:0.26458332px;stroke-linecap:butt;stroke-linejoin:miter;stroke-opacity:1" />
      <path
         sodipodi:nodetypes="csc"
         inkscape:connector-curvature="0"
         id="path32980"
         d="m 90.690663,161.14118 c 0,0 0.0974,-0.75004 2.834818,-0.68507 3.159939,0.075 2.952941,0.75594 2.952941,0.75594"
         style="fill:none;stroke:#000000;stroke-width:0.26458332px;stroke-linecap:butt;stroke-linejoin:miter;stroke-opacity:1" />
      <ellipse
         ry="0.73232687"
         rx="0.49609509"
         cy="159.44028"
         cx="92.486046"
         id="path33147"
         style="fill:#000000;stroke-width:0.22615917" />
      <ellipse
         ry="0.61421329"
         rx="0.43703499"
         cy="159.51115"
         cx="94.316864"
         id="path33149"
         style="fill:#000000;stroke-width:0.1786948" />
      <ellipse
         ry="1.1870816"
         rx="1.1339285"
         cy="164.28902"
         cx="96.643791"
         id="path33196"
         style="fill:#ff0000;stroke-width:0.27653593" />
      <path
         sodipodi:nodetypes="cc"
         inkscape:connector-curvature="0"
         id="path33179"
         d="m 95.418986,163.81836 c 1.469982,-1.5368 3.674955,-0.26727 1.403164,1.77066"
         style="fill:none;stroke:#000000;stroke-width:0.26458332px;stroke-linecap:butt;stroke-linejoin:miter;stroke-opacity:1" />
      <path
         sodipodi:nodetypes="cc"
         inkscape:connector-curvature="0"
         id="path33179-8"
         d="m 95.876429,164.36672 c 1.169303,-1.57021 1.663287,0.12272 0.493982,0.52362"
         style="fill:none;stroke:#000000;stroke-width:0.26458332px;stroke-linecap:butt;stroke-linejoin:miter;stroke-opacity:1" />
      <ellipse
         ry="1.0984933"
         rx="1.0925874"
         cy="164.14136"
         cx="91.050926"
         id="path33198"
         style="fill:#ff0000;stroke-width:0.53937352" />
      <path
         sodipodi:nodetypes="cc"
         inkscape:connector-curvature="0"
         id="path33179-8-3"
         d="m 91.79413,164.17521 c -1.169303,-1.57021 -1.663287,0.12272 -0.493982,0.52362"
         style="fill:none;stroke:#000000;stroke-width:0.26458332px;stroke-linecap:butt;stroke-linejoin:miter;stroke-opacity:1" />
      <path
         sodipodi:nodetypes="cc"
         inkscape:connector-curvature="0"
         id="path33179-4"
         d="m 92.264836,163.57939 c -1.469982,-1.5368 -3.674957,-0.26727 -1.403164,1.77066"
         style="fill:none;stroke:#000000;stroke-width:0.26458332px;stroke-linecap:butt;stroke-linejoin:miter;stroke-opacity:1" />
      <path
         transform="scale(0.26458333)"
         inkscape:connector-curvature="0"
         id="path33234"
         d="m 339.88369,645.51454 c -0.33189,-0.39991 -0.599,-1.94357 -0.62444,-3.60877 -0.028,-1.83157 0.39539,-3.46584 1.30556,-5.03951 l 0.53925,-0.93237 1.05553,0.57522 c 0.58055,0.31638 1.02503,0.60589 0.98774,0.64336 -0.0373,0.0375 0.36913,0.55095 0.90316,1.14107 0.53402,0.59012 0.9197,1.16214 0.85707,1.27116 -0.57367,0.99844 -3.43283,5.04411 -3.91741,5.54306 -0.67811,0.69823 -0.82099,0.75075 -1.10646,0.40678 z"
         style="fill:#ffffff;stroke-width:0.17857143" />
      <path
         sodipodi:nodetypes="ccccccc"
         inkscape:connector-curvature="0"
         id="path15271"
         d="m 109.95057,177.43539 c -1.50238,-0.22556 -3.6686,-0.609 -3.6686,-0.609 0,0 -1.92163,-0.58643 0.59397,-0.94731 1.0831,-0.0225 -0.27952,0.51877 1.18792,0.54132 1.46743,0.0225 1.36262,0.0225 1.36262,0.0225 h 1.53731 v 0"
         style="fill:#282828;fill-opacity:1;stroke:#000000;stroke-width:0.31440991px;stroke-linecap:butt;stroke-linejoin:miter;stroke-opacity:1" />
      <path
         sodipodi:nodetypes="ccccccscc"
         inkscape:connector-curvature="0"
         id="path15237"
         d="m 114.30826,173.21627 0.18899,1.27567 c 0,0 -0.0591,0.69689 -0.24805,0.82682 -0.18899,0.12993 -0.57877,0.38979 -0.72052,0.42522 -0.14174,0.0354 -0.38978,0.50791 -0.7087,0.82683 -0.31892,0.31891 -0.74414,1.01581 -1.71271,1.08668 -0.96856,0.0709 -1.10594,-0.15019 -1.42922,-0.8977 -0.33672,-0.7786 -0.25024,-1.13036 -0.35435,-1.92532 -0.18899,-1.16936 0.22442,-2.17335 0.22442,-2.17335 0,0 -1.84263,-2.95294 1.15755,-0.85045 0.53153,-0.10631 1.86626,-0.15355 2.33873,0.18899 1.14574,-0.2953 3.18917,-1.22842 1.26386,1.21661 z"
         style="fill:#282828;fill-opacity:1;stroke:#000000;stroke-width:0.26458332px;stroke-linecap:butt;stroke-linejoin:miter;stroke-opacity:1" />
      <path
         sodipodi:nodetypes="cccccc"
         inkscape:connector-curvature="0"
         id="path15239"
         d="m 109.97601,173.64148 c 0.28348,0.0236 0.4016,-0.14174 0.56696,0.0945 0.16536,0.23623 0,0.28348 -0.11812,0.15355 -0.11812,-0.12993 0.0827,-0.0472 -0.16536,-0.22444 -0.28348,-0.18899 -0.28348,-0.0236 -0.28348,-0.0236 z"
         style="fill:#ffffff;fill-opacity:1;stroke:#ffffff;stroke-width:0.26499999;stroke-linecap:butt;stroke-linejoin:miter;stroke-miterlimit:4;stroke-dasharray:none;stroke-opacity:1" />
      <path
         sodipodi:nodetypes="cccccc"
         inkscape:connector-curvature="0"
         id="path15239-6"
         d="m 111.21625,173.70054 c 0.28348,0.0236 0.4016,-0.14174 0.56696,0.0945 0.16537,0.23623 0,0.28348 -0.11812,0.15355 -0.11811,-0.12993 0.0827,-0.0472 -0.16536,-0.22444 -0.28348,-0.18899 -0.28348,-0.0236 -0.28348,-0.0236 z"
         style="fill:#ffffff;fill-opacity:1;stroke:#ffffff;stroke-width:0.26499999;stroke-linecap:butt;stroke-linejoin:miter;stroke-miterlimit:4;stroke-dasharray:none;stroke-opacity:1" />
      <path
         sodipodi:nodetypes="ccscccccccc"
         inkscape:connector-curvature="0"
         id="path15275"
         d="m 112.20328,178.79419 -0.4961,0.38979 c 0,0 -2.93133,1.82649 -5.55153,-0.17718 -0.40159,-0.3071 -1.06305,0.0236 -1.06305,0.0236 0,0 -0.2953,-0.48426 0.0236,-0.88586 0.31892,-0.4016 0.92132,-0.34254 1.2048,-0.0354 0.28348,0.3071 1.004,1.27567 2.17336,1.2048 1.16936,-0.0709 2.70489,-0.85045 3.012,-1.21661 l 0.72052,0.12993 c 0.0236,0.24804 -0.0236,0.56696 -0.0236,0.56696 z"
         style="fill:#282828;fill-opacity:1;stroke:#000000;stroke-width:0.26458332px;stroke-linecap:butt;stroke-linejoin:miter;stroke-opacity:1" />
      <path
         sodipodi:nodetypes="cccccccccccccc"
         inkscape:connector-curvature="0"
         id="path15281"
         d="m 111.37668,183.07549 c 0.17718,0.36617 0.74414,0.6969 1.09849,0.77958 0.35436,0.0827 0.62603,-0.0945 0.42523,0.18899 -0.2008,0.28348 -0.96857,1.22842 -0.93313,1.55915 0.0354,0.33073 0.0591,0.44885 0.0709,0.54334 0.0118,0.0945 -0.0354,0.2008 -0.0945,0.23623 -0.0591,0.0354 -0.14175,0.12993 -0.12993,0.18899 0.0118,0.0591 0.29529,0.12993 0.22442,0.34254 -0.12993,0.31893 -0.6024,0.30711 -1.06306,0.24805 0,0 -0.25986,-0.1654 -0.14174,-0.4016 0.15355,-0.44885 0.23624,0.0473 0.24805,-0.34254 0.0118,-0.38979 -0.0591,-0.56696 -0.15355,-0.7087 -0.0945,-0.14175 -0.0473,-2.2088 0.44884,-2.63403 z"
         style="fill:#282828;fill-opacity:1;stroke:#000000;stroke-width:0.26458332px;stroke-linecap:butt;stroke-linejoin:miter;stroke-opacity:1" />
      <path
         sodipodi:nodetypes="csccccccccscccc"
         inkscape:connector-curvature="0"
         id="path34224"
         d="m 112.79822,186.82191 c -6.4256,-0.14174 -7.47439,-0.6559 -7.27604,2.88207 0.23623,4.21384 -24.379471,3.07106 -24.568459,0.56697 -0.197176,-6.07189 -2.343447,-3.20642 -6.898064,-3.77977 l 2.315104,-2.55134 -2.645834,-2.40959 c 0,0 2.409599,0.0945 4.819197,-0.0945 2.409598,-0.18899 1.842634,1.22842 2.031622,2.45685 0.188988,1.22842 0.47247,2.4096 6.425595,3.1183 6.803571,0.47247 13.890629,-0.18899 15.874999,-0.37798 1.98438,-0.18898 3.11831,-1.88988 2.97657,-3.49628 -0.14174,-1.60639 1.37016,-1.60639 1.37016,-1.60639 h 5.71689 l -2.88207,2.64583 c 0,0 0,0.0472 2.74033,2.64583 z"
         style="fill:#eeba00;fill-opacity:1;stroke:#000000;stroke-width:0.26458332px;stroke-linecap:butt;stroke-linejoin:miter;stroke-opacity:1" />
      <text
         transform="matrix(0.94215294,0,0,1.378552,5.3260983,-72.093523)"
         y="-0.8018086"
         id="text34228"
         style="font-style:normal;font-variant:normal;font-weight:bold;font-stretch:normal;font-size:2.46944451px;line-height:1.25;font-family:'Open Sans';-inkscape-font-specification:'Open Sans, Bold';font-variant-ligatures:normal;font-variant-caps:normal;font-variant-numeric:normal;font-feature-settings:normal;text-align:start;letter-spacing:0px;word-spacing:0px;writing-mode:lr-tb;text-anchor:start;fill:#000000;fill-opacity:1;stroke:none;stroke-width:0.08075029"
         xml:space="preserve"><textPath
           id="textPath15335"
           xlink:href="#path15333"><tspan
   id="tspan34226"
   style="font-style:normal;font-variant:normal;font-weight:bold;font-stretch:normal;font-size:2.46944451px;font-family:'Open Sans';-inkscape-font-specification:'Open Sans, Bold';font-variant-ligatures:normal;font-variant-caps:normal;font-variant-numeric:normal;font-feature-settings:normal;text-align:start;writing-mode:lr-tb;text-anchor:start;stroke-width:0.08075029">MSAGM Aber SSAGO</tspan></textPath></text>
      <path
         sodipodi:nodetypes="cscccc"
         inkscape:connector-curvature="0"
         id="path15277"
         d="m 117.50335,181.67001 c 0.28348,0.11812 0.64638,0.22539 0.92132,0.14174 0.27167,-0.0827 0.53448,0.0857 0.39569,0.34256 -0.25798,0.61713 -0.56803,0.55917 -1.19299,0.57285 l -0.73823,-0.0177 z"
         style="fill:#282828;fill-opacity:1;stroke:#000000;stroke-width:0.26458332px;stroke-linecap:butt;stroke-linejoin:miter;stroke-opacity:1" />
      <path
         sodipodi:nodetypes="cscccccccscscccc"
         inkscape:connector-curvature="0"
         id="path15279"
         d="m 115.42811,182.40222 c -0.94494,0.25986 -1.91058,0.23195 -1.37016,3.27186 0.18899,1.06306 -0.0709,1.46466 -0.0709,1.46466 0,0 -0.46066,0.42522 0.14174,0.63783 0.6024,0.21261 1.19299,0.27167 1.31111,-0.0118 0.11811,-0.28348 0.1063,-0.4016 0,-0.5079 -0.10631,-0.10631 -0.14174,-0.11812 -0.21262,-0.21262 -0.0709,-0.0945 -0.1063,-0.0709 -0.0709,-0.17717 0.0354,-0.10631 0.16537,0.11812 0.21262,-0.0236 0.0472,-0.14174 0.0472,-0.11812 0.0472,-0.18899 0,-0.0709 0.12992,-0.0236 -0.0472,-0.16536 -0.17718,-0.14174 -0.63784,-0.63784 -0.14174,-1.59459 0.49609,-0.95675 0.63783,-1.27567 0.7087,-1.63002 0.0709,-0.35435 0.17718,-0.76776 0.10631,-0.82682 -0.0709,-0.0591 -0.61421,-0.0354 -0.61421,-0.0354 z"
         style="fill:#282828;fill-opacity:1;stroke:#000000;stroke-width:0.26458332px;stroke-linecap:butt;stroke-linejoin:miter;stroke-opacity:1" />
      <path
         sodipodi:nodetypes="ccsccccc"
         inkscape:connector-curvature="0"
         id="path15291"
         d="m 76.168867,172.87322 c -1.1526,0.46772 -2.246736,0.88569 -2.288497,1.62903 -0.04176,0.74335 -0.175395,0.74335 0.03341,1.01897 0.208805,0.27562 1.419869,1.49504 1.812422,1.5368 0.392552,0.0418 1.511743,0.25056 1.795717,0.008 0.283973,-0.24221 1.348057,-2.1903 1.323001,-2.54109 -0.02506,-0.35079 -0.167637,-1.01694 -0.71888,-1.34267 -0.551244,-0.32574 -1.188773,-0.26727 -1.957173,-0.30904 z"
         style="fill:#ffffff;fill-opacity:1;stroke:#000000;stroke-width:0.26458332px;stroke-linecap:butt;stroke-linejoin:miter;stroke-opacity:1" />
      <path
         sodipodi:nodetypes="ccccccccccccccccccccccccc"
         inkscape:connector-curvature="0"
         id="path15293"
         d="m 76.327557,177.01626 c -0.116931,-0.70159 -0.100226,-0.82687 -0.442665,-1.12755 -0.342439,-0.30067 -0.785104,-0.58465 -1.169304,-0.72663 -0.3842,-0.14199 -0.718287,-0.40926 -1.085783,-0.62642 -0.367495,-0.21715 -0.50113,-0.40925 -0.367495,-0.79346 0.133634,-0.38419 0,-0.54289 0.400904,-0.65146 0.400904,-0.10858 0.534539,-0.25892 0.935443,-0.0919 0.400905,0.16705 0.751696,0.33409 0.977204,0.69323 0.225509,0.35915 0.409257,0.49278 0.643118,0.92709 0.233861,0.43432 0.267269,0.39256 0.325734,0.60971 0.05847,0.21716 0.242214,0.81852 0.208805,0.39255 -0.03341,-0.42596 0.11693,-0.73499 0.0167,-1.11084 -0.100226,-0.37584 -0.158691,-1.12754 -0.07517,-1.38645 0.08352,-0.25892 0.141986,-0.20046 0.275621,-0.5429 0.133635,-0.34243 0.5763,-0.60971 0.835217,-0.51783 0.300679,0.0668 0.375849,0.22551 0.492779,0.5596 0.116931,0.33408 0.150339,0.48442 0.275622,0.7851 0.02506,0.30067 0.250564,0.47607 0.05012,0.70158 -0.200452,0.22551 0.0084,0.30068 -0.30903,0.59301 -0.317383,0.29232 -0.484426,0.7851 -0.50113,0.81851 -0.01671,0.0334 -0.08352,0.14199 -0.07517,0.42596 0.0084,0.28397 0.11693,0.36749 0.141987,0.5763 0.02506,0.2088 -0.334087,0.593 -0.409257,0.60136 -0.07517,0.008 -1.094134,0 -1.144247,-0.10858 z"
         style="fill:#282828;fill-opacity:1;stroke:#000000;stroke-width:0.26499999;stroke-linecap:butt;stroke-linejoin:miter;stroke-miterlimit:4;stroke-dasharray:none;stroke-opacity:1" />
      <path
         sodipodi:open="true"
         transform="matrix(-0.87123659,0.49086333,0.36636921,0.93046956,0,0)"
         d="m -6.3689489,191.81069 a 0.27337334,0.16907556 0 0 1 -0.01659,0.23794 0.27337334,0.16907556 0 0 1 -0.384837,-0.008 0.27337334,0.16907556 0 0 1 0.010498,-0.23807 0.27337334,0.16907556 0 0 1 0.3850032,0.005"
         sodipodi:end="5.5131795"
         sodipodi:start="5.5448397"
         sodipodi:ry="0.16907556"
         sodipodi:rx="0.27337334"
         sodipodi:cy="191.92448"
         sodipodi:cx="-6.5711312"
         sodipodi:type="arc"
         id="path15313"
         style="fill:#ffffff;fill-opacity:1;stroke:#000000;stroke-width:0.04894159;stroke-miterlimit:4;stroke-dasharray:none;stroke-opacity:1" />
      <path
         sodipodi:nodetypes="cc"
         inkscape:connector-curvature="0"
         id="path15333"
         d="m 80.982667,190.09219 c 0,0 11.618861,2.34212 24.121073,0"
         style="fill:none;stroke:none;stroke-width:0.26458332px;stroke-linecap:butt;stroke-linejoin:miter;stroke-opacity:1" />
      <path
         inkscape:transform-center-y="0.81012975"
         inkscape:transform-center-x="-0.55072581"
         sodipodi:open="true"
         transform="matrix(-0.87123659,0.49086333,0.36636921,0.93046956,0,0)"
         d="m -7.6259841,192.03717 a 0.27337334,0.16907556 0 0 1 0.00313,0.23742 0.27337334,0.16907556 0 0 1 -0.3837877,0.005 0.27337334,0.16907556 0 0 1 -0.013913,-0.23727 0.27337334,0.16907556 0 0 1 0.3833968,-0.0119"
         sodipodi:end="5.4404573"
         sodipodi:start="5.4966679"
         sodipodi:ry="0.16907556"
         sodipodi:rx="0.27337334"
         sodipodi:cy="192.15686"
         sodipodi:cx="-7.8190718"
         sodipodi:type="arc"
         id="path15313-1"
         style="fill:#ffffff;fill-opacity:1;stroke:#000000;stroke-width:0.04894159;stroke-miterlimit:4;stroke-dasharray:none;stroke-opacity:1" />
      <path
         sodipodi:open="true"
         d="m 77.134826,176.40706 a 0.06985697,0.01008909 0 0 1 -0.0042,0.0142 0.06985697,0.01008909 0 0 1 -0.09834,-5e-4 0.06985697,0.01008909 0 0 1 0.0027,-0.0142 0.06985697,0.01008909 0 0 1 0.09838,2.8e-4"
         sodipodi:end="5.5131809"
         sodipodi:start="5.5448412"
         sodipodi:ry="0.010089085"
         sodipodi:rx="0.069856972"
         sodipodi:cy="176.41385"
         sodipodi:cx="77.08316"
         sodipodi:type="arc"
         id="path19161"
         style="fill:#000000;fill-opacity:1;stroke:#ffffff;stroke-width:0.2075734;stroke-linejoin:round;stroke-miterlimit:4;stroke-dasharray:none;stroke-opacity:1;paint-order:normal" />
    </g>
  </g>
</svg>
